<svg width="68" height="90" viewBox="0 0 68 90" fill="none" xmlns="http://www.w3.org/2000/svg">
<g clip-path="url(#clip0_1616_436)">
<path fill-rule="evenodd" clip-rule="evenodd" d="M7.39359 72.3771L7.3362 72.3349C7.22648 72.2556 7.12013 72.1982 7.02054 72.1661C6.86694 72.1155 6.72346 72.1222 6.59855 72.1931C6.48883 72.2556 6.34029 72.367 6.15293 72.5274L6.08203 72.5881L6.8163 72.9021L7.39527 72.3771H7.39359Z" fill="white"/>
<path fill-rule="evenodd" clip-rule="evenodd" d="M7.35506 76.9951L7.3635 77.012C7.54243 76.9242 7.76186 76.9192 8.02688 77.0052L8.06232 76.8938L7.61163 76.7588C7.52217 76.7875 7.43777 76.8246 7.36013 76.8719L7.30273 76.9107H7.3078L7.33481 76.9546L7.36688 77.0086L7.35506 76.9934V76.9951Z" fill="white"/>
<path fill-rule="evenodd" clip-rule="evenodd" d="M17.9722 71.0064C17.216 70.1607 16.2893 69.5598 15.1938 69.2036C14.8089 69.0787 14.4629 68.996 14.154 68.9572C13.8519 68.8627 13.5295 68.7985 13.1868 68.7614C12.8458 68.7226 12.4441 68.6888 11.9782 68.6635C11.5157 68.6348 11.1477 68.6027 10.876 68.5706C10.6059 68.5386 10.3341 68.4795 10.0607 68.39C9.57961 68.2347 9.17787 67.9815 8.85378 67.6321C8.77613 67.5528 8.73224 67.4329 8.73056 67.2642C8.73056 67.0886 8.71537 66.9553 8.67148 66.8827L8.64109 66.832L8.43854 66.9603C8.23598 67.1713 8.09757 67.3823 8.02836 67.595C7.89163 68.0153 7.9389 68.5014 8.16846 69.0669C8.65122 69.7269 9.30784 70.1911 10.1366 70.4595C10.4253 70.554 10.7055 70.6232 10.9739 70.6671C11.2406 70.711 11.6356 70.7667 12.1605 70.8325C12.6855 70.8967 13.1058 70.9574 13.4214 71.0131C13.7388 71.0672 14.0443 71.1414 14.338 71.2376C14.8444 71.4014 15.2765 71.6225 15.6344 71.896C16.2758 72.3821 16.7754 72.9729 17.1333 73.6649C17.4962 74.3553 17.665 75.0896 17.6431 75.8728C17.5907 76.7944 17.4591 77.5827 17.2447 78.2394C16.8953 79.3112 16.3315 80.1316 15.5517 80.7038C15.4436 80.5637 15.3204 80.4371 15.1837 80.324C15.0368 80.2008 14.8562 80.0691 14.6402 79.9273C14.4747 79.8142 14.3397 79.718 14.235 79.6387C14.3684 79.5847 14.5574 79.5357 14.8022 79.4952C15.1094 79.4412 15.3542 79.3821 15.5365 79.318C15.7323 79.2471 15.896 79.1087 16.0327 78.9095C16.1188 78.7812 16.1897 78.631 16.2454 78.4605C16.3619 78.1009 16.3349 77.8005 16.1424 77.5726C16.0766 77.4494 15.9416 77.3616 15.7559 77.3008C15.5702 77.2418 15.3997 77.2316 15.2225 77.2958C15.0824 77.446 14.9896 77.5844 14.9474 77.7127C14.8967 77.868 14.917 78.0149 15.0115 78.155C15.079 78.2275 15.1584 78.2799 15.2529 78.3102C15.4521 78.3744 15.6192 78.3491 15.7205 78.1988L15.7491 78.1583L15.4571 77.8832C15.4926 77.8157 15.577 77.7397 15.7238 77.6587C15.7846 77.6418 15.8302 77.6435 15.8622 77.6536C15.9179 77.6722 16.004 77.7954 16.1019 78.0942C16.1019 78.214 16.0867 78.3221 16.0547 78.4183C15.9534 78.7289 15.6681 79.0091 15.1769 79.2572C15.0605 79.2538 14.8647 79.2791 14.5912 79.3281C14.3059 79.3804 14.1051 79.3821 13.9818 79.3416C13.9042 79.3163 13.8282 79.2673 13.7523 79.1914C14.0342 78.7896 14.2806 78.268 14.4882 77.6249C14.5558 77.4173 14.6351 77.1337 14.7246 76.7725C14.8663 76.732 14.9761 76.7303 15.0875 76.759C15.3964 76.71 15.6783 76.5986 15.9365 76.4265C16.1965 76.2492 16.3771 76.0281 16.4767 75.753C16.5695 75.3242 16.6252 74.9866 16.6455 74.7385C16.6674 74.4769 16.6033 74.2338 16.4564 74.0076C16.1306 73.3915 15.5787 72.9577 14.8039 72.7062C14.3363 72.5543 13.8468 72.5019 13.3421 72.5458C13.1108 72.5796 12.8441 72.5492 12.5454 72.4513C12.3833 72.399 12.1301 72.2876 11.7875 72.1205C11.4381 71.95 11.168 71.8335 10.9806 71.7727C10.7443 71.6968 10.5266 71.6546 10.3527 71.6546L10.3206 71.6124C10.2987 71.5786 10.2734 71.5314 10.2413 71.4706C10.1805 71.3406 10.1113 71.2444 10.0235 71.2157C9.93915 71.1887 9.84293 71.2528 9.73996 71.3609C9.67582 71.5584 9.57286 71.6782 9.43444 71.7322C9.28421 71.7879 9.06984 71.8251 8.78457 71.8419C8.51112 71.8588 8.31363 71.8824 8.20053 71.9162C7.96422 71.8673 7.77516 71.8183 7.63506 71.7727C7.27046 71.6546 7.04596 71.4706 6.94468 71.2258C6.90248 71.0638 6.90248 70.9304 6.93793 70.8224C6.97 70.7211 7.03752 70.6418 7.14217 70.5844C7.208 70.5692 7.26033 70.5726 7.30084 70.5844C7.39199 70.6148 7.45951 70.6739 7.51859 70.8123C7.51353 70.8258 7.49158 70.8562 7.43757 70.9051C7.38524 70.9574 7.34304 71.0081 7.32785 71.0537L7.31097 71.1043L7.68233 71.2562C7.90345 71.3018 8.05368 71.1499 8.13977 70.8832C8.23092 70.5236 7.99629 70.2704 7.49496 70.1151C7.11179 70.1827 6.84678 70.4662 6.69149 70.9591C6.71343 71.4284 7.10504 71.7677 7.80386 71.9955L8.25961 72.1441L8.21066 72.2555C7.74478 72.4547 7.40887 72.8919 7.1945 73.5502C7.13373 73.7342 7.09829 73.8675 7.08478 73.9519C7.0257 74.2051 7.05778 74.465 7.17762 74.7334C7.29747 74.9951 7.46626 75.2331 7.69583 75.4542C7.91864 75.5842 8.10601 75.6736 8.25624 75.7226C8.6124 75.8391 8.94831 75.8509 9.26227 75.7563C9.44457 75.7006 9.59649 75.6078 9.71465 75.4778C9.83449 75.3495 9.94421 75.1774 10.0472 74.9613C10.1501 74.7503 10.216 74.622 10.2497 74.5478C10.2599 74.3013 10.2227 74.0633 10.14 73.8354C10.0573 73.6025 9.93071 73.4286 9.75684 73.3172C9.64206 73.221 9.50703 73.1484 9.35004 73.0961C8.99219 72.9796 8.66641 73.0455 8.36427 73.3172C8.33557 73.4067 8.3035 73.4928 8.26974 73.5755C8.23429 73.6633 8.21235 73.719 8.20391 73.746L8.31363 73.7831C8.40478 73.5198 8.57358 73.3864 8.83521 73.3696C8.95506 73.3409 9.05296 73.3425 9.12892 73.3679C9.24032 73.405 9.32135 73.5012 9.36017 73.6801C9.32135 73.7932 9.26058 73.8979 9.17618 73.9975C9.08672 74.1038 9.02595 74.1815 9.00401 74.2439C9.00401 74.3992 9.08503 74.5697 9.23189 74.752C9.36692 74.914 9.44795 75.0373 9.48171 75.1217C9.43613 75.2229 9.27071 75.3867 8.95506 75.6146C8.89935 75.6044 8.84028 75.5943 8.77276 75.5859L8.56682 75.5622L8.36258 75.5386C8.29506 75.5268 8.2326 75.5116 8.17521 75.493C7.97941 75.4289 7.83424 75.3411 7.73128 75.2263C7.36836 74.6929 7.24514 74.119 7.35655 73.4945C7.52534 73.118 7.77516 72.8024 8.11107 72.5492C8.45373 72.2926 8.82002 72.1137 9.22513 72.0074C9.33654 71.9483 9.426 71.9365 9.50027 71.9601C9.54585 71.9753 9.60999 72.0361 9.69101 72.1728C9.7771 72.3078 9.86488 72.404 9.96109 72.4344C10.032 72.458 10.1079 72.4564 10.1856 72.4344C10.2683 72.4142 10.3156 72.3348 10.3476 72.2386L10.3915 72.1036C10.427 71.9955 10.4827 71.9432 10.5603 71.928C10.8152 71.9415 11.0431 71.982 11.2456 72.0479C11.6271 72.1728 12.0187 72.3855 12.4222 72.691C12.3597 72.7821 12.2263 72.88 12.0069 72.9779C11.7554 73.0877 11.5967 73.1636 11.536 73.2024C11.0667 73.5535 10.7527 73.9671 10.5975 74.4448C10.5046 74.7301 10.4574 75.0153 10.4557 75.3023C10.454 75.5842 10.4709 75.964 10.5097 76.44C10.5519 76.9109 10.5704 77.2992 10.5671 77.6047C10.5637 77.9068 10.5147 78.2022 10.4219 78.4892C10.3544 78.6985 10.2649 78.8892 10.1535 79.0631C9.63362 79.5577 8.90104 79.6606 7.9389 79.35L7.90345 79.4614L8.51112 79.6589C9.10866 79.821 9.73153 79.794 10.3746 79.5796C11.0194 79.3686 11.5191 79.0091 11.8702 78.5027C12.066 78.2697 12.2145 77.998 12.3158 77.6857C12.4036 77.4156 12.4492 77.132 12.4525 76.8316C12.4593 76.5362 12.4424 76.1918 12.4036 75.7952C12.3648 75.4036 12.3445 75.0778 12.3445 74.8161C12.3445 74.5562 12.385 74.3047 12.4644 74.0633C12.5724 73.7308 12.7648 73.4388 13.045 73.1889C13.4181 73.4607 13.7118 73.7983 13.9245 74.2034C13.8738 74.249 13.7658 74.3384 13.5919 74.4769C13.3759 74.6524 13.2341 74.8246 13.1784 74.9951C13.1581 75.0575 13.1446 75.1453 13.1379 75.2651C13.1767 75.8745 13.6139 76.3505 14.414 76.7016C14.4629 76.9464 14.4393 77.2249 14.338 77.5372C14.2891 77.6857 14.2266 77.8258 14.149 77.9592L14.0629 77.9305C14.0021 77.733 13.8333 77.5946 13.5784 77.5118L13.4957 77.4848C13.2307 77.3987 13.1193 77.2671 13.1193 77.0983C13.2037 76.9852 13.3624 76.9514 13.6358 77.0392L13.6713 76.9278L13.3691 76.8316C13.2391 76.8215 13.1277 76.8485 13.04 76.9227C12.9623 76.9903 12.883 77.105 12.7986 77.2603L12.6602 77.5186C12.6146 77.7009 12.6129 77.8528 12.6889 77.944C12.7496 78.0132 12.8779 78.1296 13.0703 78.2917C13.2628 78.4487 13.3657 78.5955 13.3911 78.7238C13.4299 78.847 13.4299 78.9702 13.3911 79.0867C13.3505 79.2116 13.2881 79.2758 13.2104 79.296C12.4846 79.2471 11.7503 79.3416 11.0076 79.5745C10.2615 79.8109 9.73828 80.1771 9.44626 80.6785L9.54247 80.7426C9.81424 80.3763 10.1535 80.1181 10.5586 79.9645C10.9739 79.8109 11.5461 79.6505 12.2736 79.4834C12.3715 79.5121 12.4947 79.5205 12.6416 79.5138C12.7952 79.5036 12.8914 79.5087 12.9404 79.5239C12.991 79.5408 13.0298 79.5695 13.0602 79.6117C12.6483 80.1535 12.1436 80.4996 11.5444 80.6532L11.4229 80.221C11.2743 80.1738 11.1579 80.1434 11.0718 80.1299C11.0279 80.1231 10.9891 80.1198 10.957 80.1231C10.9266 80.1265 10.8912 80.1333 10.8658 80.1603L10.854 80.2227C10.9215 80.3881 10.93 80.5384 10.8844 80.6734C10.8068 80.9114 10.6363 81.0819 10.3645 81.1849L10.4017 81.2946C11.7571 80.903 12.8036 80.3628 13.5362 79.6741C14.3566 79.9459 14.9676 80.3527 15.3744 80.8912C14.733 81.774 13.4619 82.4255 11.5444 82.8306C11.5377 82.6956 11.5562 82.5639 11.5984 82.434C11.6609 82.2432 11.774 82.1217 11.9411 82.0609C12.1183 81.9968 12.3732 81.958 12.7125 81.9478C13.0602 81.9394 13.3303 81.9208 13.5261 81.8955C13.732 81.8651 13.9126 81.7723 14.0595 81.6221C14.1135 81.5562 14.1658 81.4448 14.2131 81.2946C14.2772 81.0937 14.2789 80.908 14.2131 80.7342C14.1574 80.5637 14.0139 80.4472 13.7995 80.378C13.6578 80.3324 13.5176 80.3156 13.3792 80.3324C13.2509 80.3443 13.1429 80.378 13.099 80.4624L13.0551 80.5468H13.754C13.8249 80.5738 13.8687 80.6126 13.8924 80.6565C13.9228 80.7089 13.9447 80.7848 13.9531 80.8844C13.9616 80.9621 13.97 81.0245 13.9768 81.0718C13.7928 81.1359 13.5278 81.1494 13.175 81.1022C12.7884 81.0515 12.5217 81.0279 12.3698 81.0296C12.1993 81.0279 12.0052 81.1258 11.779 81.3148C11.5292 81.6778 11.3537 82.0069 11.2591 82.3006C11.2034 82.4728 11.1731 82.6585 11.168 82.8593C11.0549 82.856 10.9114 82.8863 10.7392 82.9454C10.5316 83.0163 10.3966 83.0298 10.324 83.0062C10.2548 82.9842 10.189 82.9302 10.1282 82.8357C10.14 82.1841 9.98135 81.671 9.64206 81.3047C9.31122 80.9401 8.80652 80.5856 8.13133 80.2413C7.46627 79.8969 6.96325 79.5847 6.62059 79.3011C6.29144 79.0243 6.07706 78.609 5.98422 78.0503C5.99266 77.8005 6.03318 77.5675 6.10407 77.3498C6.24417 76.9194 6.46698 76.624 6.7742 76.4518C7.23332 76.2189 7.72284 76.1868 8.24949 76.3573C8.43854 76.418 8.62084 76.5092 8.79976 76.6324L8.83859 76.6662L8.90611 76.5649L8.86559 76.5362C8.62421 76.3319 8.30519 76.1665 7.90514 76.0382C7.34811 75.942 6.78095 76.0956 6.1986 76.5007C5.71415 77.0426 5.38668 77.5709 5.21957 78.0858C5.10817 78.4284 5.06597 78.7441 5.09466 79.0293C5.15205 79.556 5.3276 80.0117 5.61962 80.4C5.90995 80.7781 6.32688 81.2169 6.87041 81.7183C7.41056 82.2162 7.78698 82.6095 8.00135 82.9015C8.22754 83.4451 8.29168 83.8215 8.2191 84.0426C8.20391 84.0899 8.17353 84.1456 8.12457 84.2114L8.20729 84.2924C8.41659 84.1304 8.64447 84.0004 8.88754 83.9025C9.13567 83.8029 9.46483 83.6915 9.87669 83.5717C10.2953 83.4501 10.6228 83.3421 10.8574 83.2459C10.9688 83.1986 11.0583 83.1919 11.1309 83.2155C11.2017 83.2391 11.2828 83.3252 11.3655 83.5058C11.4381 83.6611 11.4887 83.7675 11.5123 83.8029C11.7436 84.3144 12.174 84.6688 12.7969 84.8714C13.1547 84.9879 13.5717 85.0334 14.0561 85.0081C14.5 84.8731 14.8613 84.7313 15.1381 84.5777C15.4234 84.4241 15.6361 84.1945 15.7762 83.8924C15.8808 83.7472 15.9652 83.5801 16.026 83.3894C16.0834 83.2121 16.1171 83.0467 16.1273 82.8914C16.1408 82.7378 16.1509 82.5065 16.156 82.1926C16.161 81.9023 16.1745 81.6862 16.1965 81.5461C16.5678 81.3503 16.9206 81.0988 17.2582 80.7865C18.1528 80.0269 18.8128 78.9854 19.2433 77.6604C19.6838 76.3032 19.7513 75.0626 19.4424 73.9401C19.2247 72.8294 18.7386 71.8521 17.9823 71.0098L17.9722 71.0064ZM13.992 75.7867C14.1068 75.6146 14.1996 75.5605 14.2722 75.5673C14.3245 75.7901 14.3583 76.0062 14.3751 76.2138C14.0814 76.1007 13.9734 75.9555 13.9903 75.7867H13.992ZM14.1844 74.168C14.1135 74.0802 14.0325 73.9519 13.938 73.7764C13.8451 73.5957 13.7708 73.459 13.7118 73.3645C13.6628 73.2818 13.5953 73.2092 13.5126 73.1467C13.8738 72.9087 14.3346 72.8733 14.9018 73.059C15.0436 73.1045 15.2259 73.1923 15.4538 73.3257C15.8859 73.6244 16.188 74.0515 16.3534 74.6102C16.3872 74.855 16.3686 75.0879 16.2977 75.3073C16.1526 75.753 15.9095 76.0787 15.577 76.2847C15.4639 76.3741 15.3288 76.4197 15.1769 76.4163C15.0318 76.413 14.89 76.4062 14.7549 76.3978C14.7499 76.3117 14.7296 76.1885 14.6942 76.0315C14.6604 75.8644 14.657 75.7276 14.684 75.6196C14.971 75.623 15.2681 75.4745 15.5905 75.1706C15.6749 74.909 15.6816 74.6558 15.6074 74.411C15.5348 74.1663 15.4166 73.9688 15.2461 73.8152L14.8798 73.6177L14.8579 73.6835C14.841 73.7375 14.8579 73.8456 14.8883 73.9806C14.9237 74.1224 14.9254 74.2152 14.9085 74.2692C14.8917 74.3182 14.8326 74.3638 14.6756 74.3756C14.5659 74.3671 14.4967 74.357 14.4646 74.3469C14.3481 74.3098 14.257 74.2507 14.1861 74.1697L14.1844 74.168ZM15.7356 83.0771C15.5955 83.5075 15.3947 83.7658 15.1482 83.8721C15.0014 83.9565 14.8427 83.9734 14.6739 83.9194C14.5676 83.8839 14.4714 83.8333 14.3886 83.7675C14.2891 83.4822 14.0882 83.2915 13.7945 83.1952C13.6628 83.153 13.5176 83.1446 13.3522 83.1682L12.8205 83.4113L12.9623 83.4569C13.0754 83.494 13.1244 83.5413 13.1379 83.5869C13.1598 83.6426 13.1666 83.7286 13.1497 83.8417C13.1362 83.9582 13.1311 84.0443 13.1379 84.1051L13.5295 84.7296C13.3337 84.7482 13.1058 84.7144 12.8425 84.63C12.3749 84.4781 12.0491 84.2384 11.8567 83.9143C11.8347 83.8468 11.7942 83.7607 11.7335 83.6577C11.6761 83.5531 11.6406 83.4653 11.6221 83.3927C11.6069 83.3353 11.6086 83.2645 11.6339 83.175C11.8786 83.1159 12.3023 83.0163 12.9066 82.8762C13.543 82.7294 14.073 82.5842 14.495 82.439C14.9136 82.2939 15.3035 82.1133 15.6664 81.8938C15.7508 81.9276 15.7964 81.9765 15.815 82.039C15.8437 82.1183 15.8572 82.2297 15.8521 82.3732C15.8521 82.5066 15.8555 82.6095 15.869 82.6754L15.739 83.0754L15.7356 83.0771Z" fill="white"/>
<path fill-rule="evenodd" clip-rule="evenodd" d="M7.33546 76.9565L7.33203 76.9685L7.35601 76.9959L7.33546 76.9565Z" fill="white"/>
<path fill-rule="evenodd" clip-rule="evenodd" d="M9.10231 78.0047C8.97571 78.1684 8.86431 78.2849 8.7664 78.3541C8.68538 78.4148 8.5706 78.4368 8.41362 78.4047C8.36804 78.3473 8.33935 78.2612 8.33597 78.1397C8.33259 77.9945 8.31234 77.8798 8.24988 77.7903C8.1773 77.7397 8.11991 77.7025 8.08784 77.6924C7.99669 77.6637 7.86671 77.6637 7.70129 77.684C7.54937 77.7008 7.42278 77.6924 7.31981 77.6603C7.22528 77.5742 7.20165 77.3902 7.29111 77.0695L7.13413 77.2079L7.30968 77.0425L7.33331 76.9666L7.28268 76.9227L7.21516 76.9818L7.20334 76.9936C7.01598 77.1641 6.8725 77.4054 6.76953 77.743C6.86406 78.2393 7.07337 78.5752 7.40759 78.7271C7.51899 78.8065 7.62196 78.8622 7.71817 78.8925C8.1351 79.0276 8.55034 78.906 8.95546 78.5448C9.12257 78.3997 9.2441 78.2089 9.32006 77.976C9.39264 77.7515 9.41459 77.5489 9.37914 77.3734C9.30993 77.0695 9.15464 76.8062 8.91495 76.5851L8.91832 76.5885L8.83055 76.6644C9.14789 77.0594 9.23735 77.5033 9.10231 78.003V78.0047Z" fill="white"/>
<path fill-rule="evenodd" clip-rule="evenodd" d="M7.35844 77.0153L7.33143 76.968L7.30273 77.0609L7.35844 77.0153Z" fill="white"/>
<path fill-rule="evenodd" clip-rule="evenodd" d="M24.7197 79.7159L25.5147 79.2331L26.4464 81.8917L28.6779 80.2982L27.6027 77.5958L24.7551 79.5234L24.7787 79.3884C24.9678 78.3115 24.4732 77.5131 23.6225 76.7197L20.5065 78.6626L20.5959 78.8499C20.6516 78.8145 20.704 78.7807 20.7546 78.7504C20.8221 78.7098 20.8896 78.6744 20.9605 78.6474C21.1023 78.5917 21.2509 78.5714 21.4382 78.6052C21.8231 78.6727 22.0695 79.0711 21.9379 79.8104L21.261 83.6522C21.1563 84.2498 20.39 84.2937 19.9106 84.2228L19.8887 84.3443C21.1226 84.8608 22.0138 85.9411 22.7937 86.9607L26.8296 84.7747L26.779 84.638C26.5123 84.7781 26.1797 84.9503 25.8573 85.0819C25.513 85.2237 25.1653 85.325 24.9138 85.2811C24.2605 85.1663 23.8655 84.5637 24.009 83.7552L24.7197 79.7193V79.7159Z" fill="white"/>
<path fill-rule="evenodd" clip-rule="evenodd" d="M37.966 84.8491C37.6892 85.0347 37.3837 85.19 37.0579 85.2187C35.7244 85.3352 34.6171 84.4203 34.2288 83.2927L34.2153 83.2522L38.1399 80.2561L35.8392 77.2042L33.0321 78.7031C31.3778 79.5927 31.2242 80.2375 31.496 83.3265C31.7239 85.9209 33.0405 86.856 35.4205 87.516C35.9354 86.9371 36.4958 86.4138 37.0646 85.9108C37.6284 85.4111 38.204 84.9301 38.7543 84.4271L38.6716 84.319C38.4589 84.4777 38.2226 84.6769 37.966 84.8491ZM34.1411 82.9551C34.0854 82.7492 34.0465 82.5399 34.0026 82.0436C33.9166 81.0629 33.8457 79.8138 33.7562 78.5664L33.7528 78.509L33.8811 78.4972L35.9843 81.6216L34.1647 83.0362L34.1411 82.9518V82.9551Z" fill="white"/>
<path fill-rule="evenodd" clip-rule="evenodd" d="M47.4831 84.2297C46.4062 84.4779 44.9275 84.0204 44.5055 82.1957L43.5282 77.964L43.7308 77.8526L45.7833 80.5348L47.7009 78.867L45.7513 76.4431L42.2639 78.6307C41.3524 79.1945 41.2646 79.7667 41.9145 82.5806C42.507 85.1446 42.6251 85.651 44.2557 86.2671C44.6608 86.4258 45.0524 86.5288 45.4525 86.6689C45.628 86.7195 45.8238 86.7971 45.9943 86.8832C46.4079 86.2553 46.9025 85.6696 47.4291 85.1007C47.9558 84.5319 48.5179 83.9799 49.0631 83.4161L48.955 83.2946C48.5584 83.7031 48.1229 84.0829 47.4831 84.2314V84.2297Z" fill="white"/>
<path fill-rule="evenodd" clip-rule="evenodd" d="M61.3667 81.3026C61.1152 81.3803 60.9244 81.2452 60.786 81.0697C60.7168 80.9836 60.6577 80.8823 60.6054 80.7844C60.5548 80.6882 60.5109 80.5937 60.4721 80.5143C59.861 79.223 58.9698 78.0465 57.6548 77.4524L57.5873 77.422L58.6727 76.0362C58.774 75.9028 58.8702 75.7323 58.8313 75.6023C58.7419 75.3103 58.1848 74.8546 56.7045 74.2722C56.0175 75.361 55.2866 76.3687 54.4865 77.3376L54.4173 77.4203L53.5058 74.4376C53.1074 73.1345 53.0213 72.0103 54.4899 71.5613L54.8325 71.4567L54.7667 71.2423L54.7144 71.2592C52.3377 71.985 50.5687 73.202 50.8557 75.02L50.8641 75.0706L50.7375 75.1095L50.7139 75.0723C50.3543 74.5069 49.7956 74.0021 49.3838 73.7675L49.3027 73.9194C49.9374 74.2131 50.9671 75.4437 51.3182 76.5932L53.2391 82.8758C53.4602 83.5966 53.4467 84.0236 52.6534 84.265L52.6905 84.3849C53.7134 84.3916 54.6249 84.7664 55.4419 85.3386C55.9213 84.449 56.5036 83.6017 57.1923 82.8488L57.1096 82.7475C57.0016 82.8539 56.8463 82.9822 56.691 83.0294C56.2909 83.151 56.0816 82.8539 55.9331 82.3677L55.2933 80.273L56.0141 79.5083C57.0235 80.0451 57.6616 80.9549 58.0751 81.9846C58.4921 83.0277 58.8499 83.6979 59.9623 83.9713C60.5885 82.9872 61.1928 81.9913 61.8697 81.0494L61.7988 80.9752C61.6739 81.1034 61.5152 81.2571 61.3701 81.3009L61.3667 81.3026ZM55.241 80.121L54.4848 77.579C54.5878 77.4135 55.0435 76.8379 55.2495 76.7755C55.7778 76.6134 56.7636 77.3865 57.1164 77.7208L57.1552 77.7579L55.241 80.121Z" fill="white"/>
<path fill-rule="evenodd" clip-rule="evenodd" d="M61.4991 78.8604C61.0703 78.1447 60.5808 77.5353 60.0339 77.034C60.65 76.2086 60.5555 75.4743 60.4441 75.1097C60.1538 74.1594 59.249 73.4622 57.323 72.7026L56.928 72.5474L55.8849 69.1343L54.2172 69.6474C52.0025 70.3243 50.7146 71.2392 49.9905 72.1743L48.7042 71.44L46.969 74.7029L48.5625 75.4405C48.8123 75.6026 49.4773 76.3689 49.6985 77.088L51.4641 82.8626L50.9594 83.0162L49.0182 80.8066L47.7455 82.1182C47.4501 82.422 47.283 82.5435 47.1057 82.5857C47.0517 82.5975 46.991 82.6043 46.9302 82.6043C46.6719 82.6043 46.4778 82.503 46.3377 82.292L50.0361 79.0747L46.1284 74.2168L41.3784 77.196C40.3116 77.856 39.8964 78.7034 39.8187 79.6824L36.3179 75.0371L32.233 77.2197C31.1037 77.8273 30.4505 78.4924 30.091 79.2807L28.3962 75.0202L25.8491 76.7437C25.4642 76.1292 25.0085 75.7039 24.7722 75.4844L23.8252 74.6033L21.2662 76.1984C21.3608 75.2751 21.2983 74.3889 21.0755 73.55C20.7936 72.1642 20.1724 70.9303 19.2289 69.8804C18.2751 68.8136 17.0919 68.0455 15.7128 67.5982C15.2807 67.4581 14.8874 67.3619 14.5143 67.3028C14.1481 67.1982 13.7632 67.1239 13.3783 67.0834C13.007 67.0412 12.5681 67.004 12.0837 66.977C11.6515 66.95 11.3106 66.9213 11.0709 66.8926C10.9122 66.8741 10.7468 66.8369 10.5814 66.7829C10.5037 66.7576 10.4345 66.7289 10.3704 66.6951C10.3299 66.4757 10.2539 66.2394 10.1172 66.0098L9.19554 64.4755L7.3624 65.6385L7.2223 65.7836C6.83913 66.1803 6.57074 66.6124 6.4222 67.0682C6.24834 67.6016 6.21796 68.1721 6.32767 68.7714C5.75039 69.1174 5.30983 69.6964 5.07182 70.4475L4.98067 70.7362L4.99418 71.0383C4.99755 71.1109 5.0043 71.1902 5.01612 71.2729L2.91797 73.0672L5.35878 74.1155C5.35034 74.3957 5.3841 74.6776 5.46006 74.9578C5.38072 75.0067 5.30307 75.0574 5.22543 75.1114L5.06169 75.2245L4.93003 75.373C4.2886 76.0904 3.84298 76.8264 3.60329 77.5606C3.4193 78.1278 3.35178 78.6781 3.40579 79.2098C3.49188 79.9981 3.75689 80.7053 4.19576 81.3197L4.02359 81.87L4.38988 81.5746C4.72748 81.9916 5.16297 82.4456 5.71832 82.9571C6.06266 83.2744 6.28548 83.5006 6.42558 83.6542L5.88374 84.3902L8.06798 86.5221L9.2293 85.6241C9.31539 85.5566 9.40654 85.5042 9.50782 85.4637C9.70193 85.3861 9.98382 85.2916 10.3366 85.1869C10.3484 85.1835 10.3602 85.1801 10.3704 85.1768C10.7485 85.673 11.341 86.1727 12.2626 86.4714C12.7251 86.6217 13.2399 86.6976 13.7902 86.6976C13.9016 86.6976 14.0147 86.6943 14.1329 86.6892L14.3371 86.6791L14.5329 86.62C15.0967 86.4495 15.5575 86.2638 15.9255 86.0613C16.4825 85.7608 16.9298 85.3067 17.2235 84.743C17.3873 84.4898 17.5206 84.2096 17.6185 83.9057C17.7181 83.5985 17.7755 83.3082 17.7975 83.0195C17.8093 82.8794 17.8177 82.7073 17.8245 82.4946C18.0101 82.3562 18.1908 82.2059 18.3663 82.0456C18.8271 81.6506 19.2356 81.1931 19.5968 80.6834L19.8939 81.3062L19.9631 81.2624L19.7471 82.4895L18.5283 82.3072L17.9882 85.3759L19.2322 85.8975C20.0779 86.252 20.7902 87.1213 21.4485 87.9822L22.3246 89.1283L28.9161 85.5582L27.9337 82.8997L29.696 81.6405C29.7044 82.1975 29.75 82.8052 29.8091 83.4753C29.9542 85.1396 30.4961 86.409 31.4667 87.3559C32.5031 88.3687 33.8821 88.8447 34.9658 89.1435L35.9786 89.4237L36.6774 88.6371C37.1703 88.0818 37.7138 87.5855 38.1797 87.1736C38.3992 86.9795 38.6186 86.7888 38.838 86.598C39.1824 86.2993 39.5385 85.9904 39.8863 85.673L40.7606 84.8763C41.2147 86.2908 41.8713 87.1635 43.6471 87.837C43.9391 87.9501 44.2176 88.0396 44.4641 88.1155C44.6058 88.1611 44.7493 88.205 44.8928 88.2556L44.9384 88.2708L44.9839 88.2843C45.0565 88.3046 45.1511 88.3434 45.2236 88.3805L46.5706 89.0692L47.4028 87.8049C47.7117 87.3357 48.1135 86.8394 48.6654 86.2436C48.998 85.884 49.3457 85.5329 49.712 85.1599C49.8993 84.9691 50.0867 84.7784 50.2724 84.5877L50.8108 84.0323L51.4303 86.0613L52.671 86.0697C53.2601 86.0731 53.8475 86.2858 54.467 86.7179L56.0216 87.8049L56.9213 86.1338C57.1914 85.6308 57.4918 85.1599 57.8176 84.7261C58.2413 85.1042 58.7983 85.4232 59.5512 85.6089L60.7294 85.8992L61.3809 84.8763C61.516 84.6653 61.6493 84.4526 61.7827 84.2399C62.2705 83.4652 62.733 82.7326 63.236 82.0321L64.0496 80.8961L61.8063 78.538L61.4974 78.8553L61.4991 78.8604ZM38.9984 81.9713L37.6632 82.9655C37.5805 83.028 37.4944 83.0955 37.4049 83.1647C37.2716 83.2694 37.145 83.3689 37.0285 83.4466C36.9458 83.5023 36.8952 83.5293 36.8699 83.5394C36.8564 83.5394 36.8445 83.5394 36.831 83.5394C36.7686 83.5394 36.7078 83.5327 36.6487 83.5192L39.8863 81.048C39.974 81.6523 40.1209 82.292 40.2745 82.9571C40.3555 83.3048 40.4298 83.6289 40.5058 83.9327L39.0018 81.9696L38.9984 81.9713ZM55.2755 73.3728C55.2013 73.4892 55.127 73.6057 55.0527 73.7205C54.9818 73.4605 54.9548 73.2917 54.9447 73.1888C54.9565 73.1854 55.4983 73.02 55.4983 73.02L55.2755 73.3728Z" fill="white"/>
<path fill-rule="evenodd" clip-rule="evenodd" d="M67.2697 32.2363C66.7076 31.3788 64.9521 28.83 63.4836 28.0704C63.0228 27.7868 61.4648 26.1039 59.5861 23.7205C59.4494 23.0098 59.1793 21.7354 58.7708 19.8567C57.5065 14.045 53.7069 9.15662 52.9321 8.20292C52.5523 7.49734 51.3927 5.89039 46.4064 3.77874C44.7606 3.08161 42.0244 2.09077 40.6572 1.86627L40.5829 1.44765L38.9675 0.708317C37.7386 0.146222 35.4734 -0.00231934 34.4488 -0.00231934C34.3036 -0.00231934 34.1635 -0.000631363 34.0302 0.00443256C32.7541 0.0483199 31.9371 0.693126 31.3952 1.12018C31.3041 1.19277 31.1859 1.2856 31.1083 1.33793C30.0381 1.40376 27.8421 1.80044 27.3964 1.88315L24.375 2.44018L24.5184 2.59378C21.8076 3.49854 18.121 6.48287 17.6771 7.0551C17.6197 7.12937 17.4965 7.28635 17.3277 7.49734C16.6255 8.38522 15.1637 10.2352 14.4176 11.2767C13.4588 12.6187 11.3641 17.5087 10.9539 18.4742L10.8678 18.6751L10.2179 23.1854L10.3496 23.2208C9.88878 23.896 9.53093 24.5628 9.30643 25.0151C7.95943 27.7412 2.98328 31.5476 1.91986 32.0303C1.42697 32.1772 0.390557 32.5182 0.0799696 33.6609C-0.264377 34.9269 0.510403 36.046 2.26758 37.9264C3.25842 38.9865 4.89238 39.8372 7.26736 40.5276C9.08868 41.0559 10.9826 41.3918 12.365 41.6349C12.755 41.7041 13.209 41.7835 13.5264 41.8476C13.739 42.3489 14.026 43.3566 14.2016 44.2462L14.2201 44.3407L15.3122 47.7639L15.3949 49.6443L15.871 50.7989L15.9115 53.0743L16.5782 53.4372L17.0559 54.5277L17.5589 54.6171C17.753 55.0695 18.0248 55.5236 18.3185 55.9675C19.149 57.2318 19.311 58.1247 19.3313 58.2682V58.3779L19.5558 59.2371C19.4427 60.5048 19.8664 61.4669 20.7256 61.8838C20.7627 61.9244 20.81 61.9834 20.8505 62.0391C21.183 62.7481 22.6313 65.5805 25.4637 67.8356C26.7905 68.8923 28.8903 70.1988 30.5698 71.0124L30.9462 71.1947L31.3649 71.1795C35.2742 71.0428 37.5631 69.8021 40.4597 68.2306C40.7905 68.0517 41.1315 67.866 41.4876 67.677L41.8404 67.4879L42.0717 67.1604C42.5426 66.4937 42.9089 65.5839 43.2955 64.62C43.5892 63.8875 43.893 63.1296 44.2424 62.4713C44.2829 62.4037 44.4585 62.24 44.5749 62.132C44.9243 61.8062 45.4037 61.3606 45.6586 60.6769C45.8544 60.152 46.1583 59.416 46.4807 58.6362C46.5836 58.3864 46.69 58.1298 46.7963 57.8715C47.4242 56.3456 48.0488 54.7707 48.3661 53.5959C48.6024 52.7181 48.9822 52.151 49.4228 51.4944C49.9157 50.7601 50.471 49.9279 50.7681 48.7126C50.8559 48.5286 51.2306 48.1032 51.5041 47.7893C52.1641 47.0364 52.9794 46.108 53.4587 44.8944C53.7828 47.2525 54.1002 49.2983 54.2926 49.8165C54.507 50.3921 54.9847 50.7972 55.5569 50.912C55.6835 51.4235 55.8033 51.8742 55.9181 52.259C56.2506 53.3866 56.7047 54.9311 58.1986 54.9328H58.2003C58.7843 54.9328 59.3312 54.6407 59.6654 54.1495C60.5432 52.8633 59.7363 49.5633 59.451 48.8375C58.9548 47.5749 58.5564 43.7077 58.3691 40.9496L60.3744 40.3065C63.3249 40.0837 65.6932 37.8218 66.4004 37.074C67.4672 36.3853 67.8335 35.5228 67.95 34.9016C68.1914 33.6137 67.5364 32.5806 67.2731 32.2278L67.2697 32.2363Z" fill="white"/>
<path fill-rule="evenodd" clip-rule="evenodd" d="M65.8915 33.2145C65.8915 33.2145 63.9217 30.1897 62.703 29.5668C61.5821 28.9946 58.4965 25.0717 58.0019 24.4354C58.0796 24.9063 57.9327 24.3459 57.9327 24.3459C57.9327 24.3459 57.9581 24.3797 58.0019 24.4354C57.9361 24.0438 57.715 22.9415 57.1225 20.2154C55.816 14.2079 51.5117 9.13558 51.5117 9.13558C50.2221 6.48715 41.102 3.4775 40.1719 3.50957C39.2418 3.54164 39.0764 2.61663 39.0764 2.61663L38.2645 2.24528C37.4526 1.87392 35.4169 1.64773 34.0867 1.69331C32.7566 1.74057 32.2367 2.98798 31.3067 3.02006C30.3766 3.05213 27.6995 3.54502 27.6995 3.54502C27.6995 3.54502 27.7822 3.63448 25.5642 4.05816C23.3462 4.48184 19.3085 7.70418 19.0064 8.09242C18.7059 8.48065 16.6871 11.0042 15.7874 12.2617C14.8877 13.5192 12.506 19.1368 12.506 19.1368L12.1009 21.949L13.7517 22.3946C13.7517 22.3946 12.4638 22.4402 10.8197 25.7672C9.17564 29.0942 3.41121 33.3529 2.44738 33.6382C1.48186 33.9235 1.0835 34.1885 3.50067 36.7778C5.91785 39.3655 13.8328 39.9698 14.5383 40.3867C15.2439 40.802 15.8566 43.9247 15.8566 43.9247L16.9859 47.4695L17.0652 49.279L17.5497 50.4538L17.5784 52.0658L17.889 52.2346L18.235 53.0263L19.0857 53.1765C19.0857 53.1765 18.5186 53.2103 19.7238 55.0434C20.929 56.8765 21.01 58.1459 21.01 58.1459L21.2666 59.1249C21.2666 59.1249 21.0826 60.2272 21.4911 60.3791C21.8979 60.531 22.325 61.2096 22.325 61.2096C22.325 61.2096 23.6146 64.2057 26.5128 66.5149C27.772 67.5175 29.752 68.7413 31.3033 69.4924C35.2346 69.3557 37.3158 67.9885 40.6901 66.1874C41.3535 65.2489 41.897 63.2841 42.7511 61.6771C43.0921 61.0357 43.8517 60.6829 44.0728 60.0887C44.3429 59.3663 44.7801 58.3299 45.2324 57.231C45.8232 55.7945 46.4393 54.25 46.733 53.1579C47.339 50.9112 48.6742 50.204 49.13 48.2898C49.3832 47.223 51.2754 45.9908 51.9354 44.1425C52.3591 42.9575 53.0005 40.3462 53.5322 40.3276C54.0639 40.3091 54.6091 40.6889 54.6091 40.6889C54.6091 40.6889 55.5763 48.4384 55.87 49.2266C56.1637 50.0149 53.9998 34.6881 56.3038 46.4162C58.6096 58.1442 58.7514 51.686 57.8737 49.4545C56.9976 47.223 56.6094 39.9529 56.6094 39.9529L57.2609 39.5309L60.0562 38.6346C62.8802 38.5367 65.3109 35.7566 65.3109 35.7566C67.1389 34.7286 65.8882 33.2078 65.8882 33.2078L65.8915 33.2145Z" fill="white"/>
<path fill-rule="evenodd" clip-rule="evenodd" d="M7.30299 76.9124L7.36038 76.8735C7.43803 76.8246 7.52243 76.7875 7.61189 76.7604L8.06258 76.8955L8.02713 77.0069C7.76212 76.9208 7.54268 76.9259 7.36376 77.0136L7.33506 76.9579L7.30805 76.9124H7.30299ZM7.33 76.9681L7.35701 77.0136L7.3013 77.0592L7.33 76.9681ZM7.33506 76.9563L7.36713 77.0103L7.33169 76.9698L7.33506 76.9579V76.9563ZM7.21353 76.9833L7.28105 76.9242L7.33169 76.9681L7.30805 77.044L7.13251 77.2094L7.20171 76.9951L7.21353 76.9833ZM8.91501 76.5866C9.1547 76.8077 9.30999 77.071 9.3792 77.3749C9.41465 77.5521 9.3927 77.753 9.32012 77.9775C9.24416 78.2121 9.12263 78.4012 8.95552 78.5463C8.5504 78.9075 8.13516 79.0291 7.71823 78.894C7.62202 78.862 7.51905 78.8063 7.40765 78.7286C7.07343 78.575 6.86412 78.2408 6.76959 77.7445C6.87256 77.4069 7.01435 77.1639 7.2034 76.9951L7.13419 77.2094L7.29118 77.071C7.20171 77.3917 7.22534 77.5774 7.31987 77.6618C7.42284 77.6939 7.54944 77.7023 7.70135 77.6855C7.86677 77.6635 7.99675 77.6635 8.0879 77.6939C8.11997 77.704 8.17736 77.7412 8.24994 77.7918C8.3124 77.8813 8.33265 77.996 8.33603 78.1412C8.33941 78.2644 8.3681 78.3488 8.41368 78.4062C8.57066 78.4383 8.68544 78.4164 8.76646 78.3556C8.86437 78.2864 8.97577 78.1699 9.10237 78.0062C9.23741 77.5065 9.14795 77.0626 8.83061 76.6676L8.91838 76.5916L8.91501 76.5883V76.5866ZM8.89475 76.563L8.82723 76.6642L8.78841 76.6305C8.60948 76.5056 8.42718 76.4161 8.23813 76.3553C7.71148 76.1848 7.22197 76.2152 6.76284 76.4499C6.45732 76.6203 6.23282 76.9174 6.09271 77.3479C6.02182 77.5656 5.98131 77.8002 5.97287 78.0484C6.06739 78.6071 6.28008 79.0223 6.60923 79.2992C6.95189 79.5827 7.45491 79.8967 8.11997 80.2394C8.79347 80.5837 9.29818 80.9382 9.63071 81.3028C9.96999 81.6691 10.1287 82.1822 10.1168 82.8338C10.1776 82.9283 10.2434 82.9823 10.3126 83.0043C10.3852 83.0279 10.5203 83.0144 10.7279 82.9435C10.9001 82.8844 11.0452 82.854 11.1566 82.8574C11.1617 82.6565 11.1921 82.4709 11.2478 82.2987C11.3423 82.005 11.5179 81.6775 11.7677 81.3146C11.9939 81.1239 12.188 81.026 12.3585 81.0293C12.5104 81.0293 12.7771 81.053 13.1636 81.1019C13.5164 81.1475 13.7814 81.1357 13.9654 81.0715C13.957 81.0243 13.9502 80.9618 13.9418 80.8842C13.9333 80.7829 13.9114 80.7069 13.881 80.6563C13.8574 80.6107 13.8152 80.5736 13.7426 80.5483H13.0438L13.0877 80.4622C13.1316 80.3778 13.2396 80.3423 13.3679 80.3322C13.5063 80.317 13.6464 80.3322 13.7882 80.3778C14.0009 80.447 14.146 80.5618 14.2017 80.7339C14.2693 80.9078 14.2676 81.0935 14.2017 81.2943C14.1528 81.4429 14.1021 81.556 14.0481 81.6218C13.9013 81.7703 13.7207 81.8632 13.5147 81.8953C13.3189 81.9223 13.0489 81.9391 12.7011 81.9476C12.3618 81.9577 12.107 81.9965 11.9297 82.0607C11.7626 82.1214 11.6478 82.2447 11.5871 82.4337C11.5449 82.5637 11.528 82.6954 11.5331 82.8304C13.4506 82.4236 14.7216 81.7737 15.3631 80.8909C14.9563 80.3525 14.3435 79.9457 13.5249 79.6739C12.7923 80.3626 11.7457 80.901 10.3903 81.2943L10.3532 81.1846C10.6249 81.08 10.7954 80.9095 10.8731 80.6732C10.9169 80.5381 10.9085 80.3879 10.8427 80.2225L10.8545 80.16C10.8798 80.1347 10.9153 80.1263 10.9456 80.1229C10.9777 80.1195 11.0165 80.1229 11.0604 80.1296C11.1448 80.1431 11.263 80.1735 11.4115 80.2208L11.5331 80.6529C12.1323 80.4993 12.637 80.1533 13.0489 79.6114C13.0202 79.5692 12.9813 79.5405 12.929 79.5237C12.8801 79.5085 12.7822 79.5017 12.6302 79.5135C12.4834 79.5203 12.3585 79.5118 12.2623 79.4831C11.5347 79.6503 10.9625 79.8106 10.5473 79.9642C10.1405 80.1161 9.80288 80.3744 9.53112 80.7424L9.4349 80.6782C9.72692 80.1769 10.2502 79.8106 10.9963 79.5743C11.739 79.3414 12.4749 79.2485 13.1991 79.2958C13.2767 79.2738 13.3392 79.2114 13.3797 79.0865C13.4168 78.97 13.4168 78.8468 13.3797 78.7236C13.3544 78.5953 13.2514 78.4484 13.059 78.2914C12.8666 78.1294 12.7366 78.0129 12.6775 77.9437C12.6015 77.8509 12.6032 77.699 12.6488 77.5183L12.7872 77.2601C12.8699 77.1031 12.9493 76.9883 13.0286 76.9225C13.1164 76.8482 13.2278 76.8212 13.3578 76.8313L13.6599 76.9276L13.6245 77.039C13.351 76.9512 13.1923 76.9866 13.1079 77.098C13.1079 77.2668 13.2176 77.3985 13.4843 77.4846L13.5671 77.5116C13.8219 77.5943 13.9907 77.731 14.0515 77.9302L14.1376 77.9589C14.2152 77.8256 14.2777 77.6855 14.3266 77.5369C14.4279 77.2246 14.4516 76.9478 14.4026 76.7014C13.6025 76.3503 13.1653 75.8743 13.1265 75.2649C13.1332 75.1451 13.1468 75.0556 13.167 74.9948C13.2227 74.8243 13.3645 74.6522 13.5806 74.4766C13.7544 74.3382 13.8625 74.2487 13.9131 74.2032C13.7004 73.7981 13.4067 73.4605 13.0337 73.1887C12.7535 73.4385 12.561 73.7305 12.453 74.0631C12.3737 74.3044 12.3348 74.556 12.3332 74.8159C12.3332 75.0775 12.3517 75.4033 12.3922 75.7949C12.4311 76.1916 12.4479 76.5359 12.4412 76.8313C12.4378 77.1318 12.3922 77.4154 12.3045 77.6855C12.2032 77.9977 12.0546 78.2695 11.8588 78.5024C11.5077 79.0088 11.0081 79.3667 10.3633 79.5794C9.72017 79.792 9.09731 79.8191 8.49976 79.6587L7.89209 79.4612L7.92754 79.3498C8.88969 79.6604 9.62227 79.5574 10.1422 79.0628C10.2519 78.889 10.3413 78.6982 10.4105 78.4889C10.5034 78.202 10.5523 77.9066 10.5557 77.6044C10.5591 77.2972 10.5405 76.909 10.4983 76.4397C10.4595 75.9637 10.4426 75.5839 10.4443 75.302C10.446 75.0151 10.4933 74.7298 10.5861 74.4445C10.7414 73.9685 11.0554 73.5533 11.5246 73.2022C11.5837 73.1634 11.744 73.0874 11.9956 72.9777C12.215 72.8798 12.3483 72.7836 12.4108 72.6907C12.0074 72.3852 11.6158 72.1708 11.2343 72.0476C11.0317 71.9818 10.8038 71.943 10.549 71.9278C10.473 71.943 10.4156 71.997 10.3802 72.1033L10.3363 72.2384C10.3059 72.3346 10.2569 72.4139 10.1742 72.4342C10.0949 72.4561 10.0206 72.4578 9.94973 72.4342C9.85521 72.4038 9.76574 72.3076 9.67966 72.1725C9.59863 72.0358 9.53449 71.975 9.48892 71.9599C9.41633 71.9362 9.32518 71.9463 9.21378 72.0071C8.80866 72.1151 8.44069 72.2941 8.09971 72.549C7.76381 72.8038 7.51399 73.1178 7.34519 73.4942C7.23378 74.1188 7.35701 74.6927 7.71992 75.2261C7.82289 75.3425 7.96805 75.4303 8.16386 75.4928C8.22294 75.5113 8.2837 75.5265 8.35122 75.5384L8.55547 75.562L8.7614 75.5856C8.82723 75.5941 8.888 75.6042 8.9437 75.6143C9.25935 75.3847 9.42477 75.2227 9.47035 75.1214C9.43659 75.037 9.35388 74.9138 9.22053 74.7518C9.07199 74.5695 8.99096 74.399 8.99265 74.2437C9.0146 74.1795 9.07536 74.1036 9.16483 73.9972C9.24922 73.8976 9.30999 73.793 9.34881 73.6799C9.3083 73.4993 9.22897 73.4031 9.11756 73.3676C9.03992 73.3423 8.9437 73.3423 8.82385 73.3693C8.56222 73.3862 8.39342 73.5195 8.30227 73.7829L8.19255 73.7457C8.20099 73.7187 8.22294 73.663 8.25838 73.5752C8.29214 73.4908 8.32422 73.4064 8.35291 73.317C8.65675 73.0452 8.98252 72.9794 9.33869 73.0959C9.49567 73.1465 9.63071 73.2208 9.74549 73.317C9.91935 73.4284 10.0459 73.6023 10.1287 73.8352C10.2114 74.0648 10.2485 74.3028 10.2384 74.5475C10.2046 74.6218 10.1405 74.7501 10.0358 74.9611C9.93285 75.1771 9.82314 75.3493 9.70329 75.4776C9.58513 75.6059 9.43321 75.6987 9.25091 75.7561C8.93695 75.8506 8.60104 75.8388 8.24488 75.7223C8.09465 75.6734 7.90728 75.5839 7.68447 75.454C7.45491 75.2328 7.28611 74.9948 7.16627 74.7332C7.04642 74.4648 7.01435 74.2049 7.07343 73.9517C7.08693 73.8673 7.12238 73.7339 7.18315 73.5499C7.39752 72.8916 7.73342 72.4544 8.19931 72.2552L8.24826 72.1438L7.7925 71.9953C7.09199 71.7674 6.70207 71.4281 6.68013 70.9589C6.83711 70.466 7.10043 70.1824 7.4836 70.1149C7.98662 70.2702 8.22125 70.5234 8.12841 70.8829C8.04232 71.1496 7.89209 71.3015 7.67097 71.256L7.29961 71.104L7.31649 71.0534C7.33169 71.0061 7.3722 70.9555 7.42621 70.9049C7.48192 70.8559 7.50386 70.8238 7.50724 70.812C7.44984 70.6736 7.38064 70.6145 7.28949 70.5842C7.24898 70.5706 7.19665 70.569 7.13082 70.5842C7.02616 70.6415 6.96033 70.7209 6.92657 70.8222C6.89113 70.9302 6.89113 71.0635 6.93333 71.2256C7.0346 71.4686 7.2591 71.6526 7.62371 71.7725C7.76381 71.8181 7.95286 71.8653 8.18918 71.916C8.30396 71.8822 8.49976 71.8586 8.77322 71.8417C9.0568 71.8248 9.27286 71.7877 9.42309 71.732C9.5615 71.678 9.66447 71.5598 9.72861 71.3606C9.83157 71.2526 9.92779 71.1884 10.0122 71.2155C10.0983 71.2441 10.1692 71.3404 10.2299 71.4703C10.262 71.5328 10.2873 71.5784 10.3093 71.6121L10.3413 71.6543C10.5152 71.6543 10.733 71.6948 10.9693 71.7725C11.1566 71.8333 11.4267 71.9497 11.7761 72.1202C12.1188 72.289 12.372 72.3987 12.534 72.4511C12.8328 72.549 13.0995 72.5776 13.3307 72.5456C13.8354 72.5 14.325 72.554 14.7925 72.7059C15.5673 72.9574 16.1193 73.3896 16.4451 74.0074C16.5919 74.2336 16.6561 74.4783 16.6341 74.7383C16.6139 74.9864 16.5581 75.324 16.4653 75.7527C16.3657 76.0279 16.1834 76.249 15.9252 76.4262C15.6686 76.5984 15.385 76.7098 15.0761 76.7588C14.9647 76.7301 14.8533 76.7318 14.7132 76.7723C14.622 77.1335 14.5444 77.4171 14.4769 77.6247C14.2676 78.2661 14.0228 78.7894 13.7409 79.1911C13.8169 79.2671 13.8945 79.316 13.9705 79.3414C14.0937 79.3819 14.2946 79.3802 14.5798 79.3279C14.8533 79.2772 15.0508 79.2536 15.1656 79.257C15.6568 79.0088 15.942 78.7286 16.0433 78.418C16.0754 78.3201 16.0906 78.2138 16.0906 78.0939C15.9927 77.7969 15.9066 77.672 15.8509 77.6534C15.8188 77.6433 15.7732 77.6416 15.7125 77.6584C15.5656 77.7378 15.4829 77.8137 15.4458 77.8829L15.7378 78.1581L15.7091 78.1986C15.6078 78.3471 15.4407 78.3741 15.2415 78.31C15.1487 78.2796 15.0677 78.2273 15.0001 78.1547C14.9056 78.0146 14.8871 77.8678 14.936 77.7125C14.9782 77.5859 15.071 77.4458 15.2111 77.2955C15.3901 77.2314 15.5606 77.2398 15.7445 77.3006C15.9302 77.3614 16.0653 77.4491 16.1311 77.5724C16.3235 77.8002 16.3505 78.1007 16.2341 78.4602C16.1784 78.6324 16.1075 78.7826 16.0214 78.9092C15.8863 79.1101 15.7209 79.2485 15.5251 79.3177C15.3428 79.3819 15.0981 79.4426 14.7908 79.495C14.5444 79.5355 14.357 79.5844 14.2237 79.6384C14.3283 79.7178 14.4634 79.814 14.6288 79.9271C14.8449 80.0689 15.0255 80.2005 15.1723 80.3238C15.309 80.4368 15.4323 80.5634 15.5403 80.7035C16.3201 80.1313 16.8839 79.311 17.2333 78.2391C17.446 77.5825 17.5794 76.7942 17.6317 75.8726C17.6536 75.0894 17.4848 74.3551 17.1219 73.6647C16.7641 72.9709 16.2644 72.3818 15.623 71.8957C15.2635 71.6223 14.833 71.4028 14.3266 71.2374C14.0329 71.1412 13.7274 71.0669 13.4101 71.0129C13.0944 70.9572 12.6741 70.8964 12.1492 70.8323C11.6259 70.7665 11.2309 70.7107 10.9625 70.6669C10.6924 70.623 10.4139 70.5538 10.1253 70.4592C9.29649 70.1909 8.63987 69.7267 8.15711 69.0667C7.92923 68.5029 7.88197 68.0151 8.017 67.5948C8.08621 67.3821 8.22462 67.1694 8.42718 66.9601L8.62974 66.8318L8.66012 66.8824C8.70401 66.9567 8.7192 67.0884 8.7192 67.2639C8.72089 67.4327 8.76646 67.5526 8.84242 67.6319C9.1682 67.9813 9.56994 68.2345 10.0493 68.3898C10.3228 68.4793 10.5929 68.5383 10.8646 68.5704C11.1381 68.6025 11.506 68.6329 11.9669 68.6632C12.4327 68.6902 12.8345 68.7223 13.1754 68.7611C13.5181 68.7966 13.8405 68.8624 14.1427 68.9569C14.4516 68.9975 14.7976 69.0802 15.1824 69.2034C16.2796 69.5596 17.2063 70.1605 17.9609 71.0061C18.7171 71.8484 19.2049 72.8258 19.4209 73.9365C19.7315 75.059 19.664 76.2996 19.2218 77.6568C18.7913 78.9801 18.1313 80.0233 17.2367 80.7829C16.9008 81.0952 16.5463 81.3484 16.175 81.5425C16.153 81.6826 16.1395 81.8986 16.1345 82.189C16.1294 82.5029 16.1193 82.7342 16.1058 82.8878C16.0956 83.0431 16.0619 83.2085 16.0045 83.3857C15.942 83.5748 15.8593 83.7436 15.7547 83.8888C15.6146 84.1909 15.4019 84.4205 15.1166 84.5741C14.8398 84.726 14.4786 84.8695 14.0346 85.0045C13.5485 85.0298 13.1333 84.9843 12.7754 84.8678C12.1542 84.6652 11.7221 84.3108 11.4909 83.7993C11.4672 83.7638 11.4166 83.6575 11.344 83.5022C11.263 83.3216 11.182 83.2338 11.1094 83.2119C11.0368 83.1882 10.9473 83.195 10.8359 83.2423C10.6013 83.3385 10.2738 83.4465 9.85521 83.568C9.44503 83.6896 9.11419 83.7993 8.86605 83.8989C8.6213 83.9968 8.39511 84.1268 8.1858 84.2888L8.10309 84.2078C8.15204 84.142 8.18243 84.0862 8.19762 84.039C8.2702 83.8179 8.20437 83.4431 7.97987 82.8979C7.7655 82.6059 7.39077 82.2109 6.84893 81.7146C6.3054 81.2133 5.88847 80.7744 5.59814 80.3963C5.30443 80.0098 5.13057 79.5524 5.07318 79.0257C5.04448 78.7404 5.08668 78.4248 5.19809 78.0821C5.3652 77.5673 5.69266 77.039 6.17711 76.4971C6.76115 76.092 7.32662 75.9384 7.88365 76.0346C8.2837 76.1646 8.60104 76.3283 8.84411 76.5326L8.88462 76.5613L8.89475 76.563ZM15.4525 73.3237C15.2246 73.1904 15.0423 73.1026 14.9006 73.057C14.3334 72.873 13.8743 72.9068 13.5114 73.1448C13.5941 73.2073 13.6599 73.2798 13.7105 73.3626C13.7696 73.4571 13.8439 73.5938 13.9367 73.7744C14.0313 73.95 14.1123 74.0799 14.1832 74.166C14.2524 74.2471 14.3452 74.3044 14.4617 74.3433C14.4954 74.3534 14.5647 74.3652 14.6727 74.372C14.8297 74.3601 14.8887 74.3146 14.9056 74.2656C14.9225 74.2116 14.9208 74.1171 14.8854 73.977C14.855 73.8419 14.8381 73.7339 14.855 73.6799L14.8769 73.6141L15.2432 73.8116C15.4154 73.9652 15.5335 74.1627 15.6044 74.4074C15.6787 74.6522 15.672 74.9054 15.5876 75.167C15.2652 75.4725 14.9664 75.6194 14.6811 75.616C14.6558 75.7257 14.6575 75.8624 14.6912 76.0279C14.7267 76.1848 14.747 76.3081 14.7503 76.3942C14.8854 76.4026 15.0272 76.4093 15.1723 76.4127C15.3259 76.4161 15.4593 76.3722 15.5724 76.2811C15.9049 76.0751 16.148 75.7493 16.2931 75.3037C16.364 75.0843 16.3843 74.853 16.3488 74.6066C16.1817 74.0479 15.8813 73.6208 15.4491 73.322L15.4525 73.3237ZM14.2709 75.5654C14.1967 75.5586 14.1038 75.6143 13.9907 75.7848C13.9722 75.9536 14.0802 76.0988 14.3756 76.2119C14.3587 76.0025 14.3233 75.7882 14.2726 75.5654H14.2709ZM15.8475 82.373C15.8526 82.2295 15.8391 82.1181 15.8104 82.0387C15.7918 81.9763 15.7462 81.9273 15.6618 81.8936C15.3006 82.113 14.9107 82.2936 14.4904 82.4388C14.0684 82.584 13.5401 82.7291 12.902 82.876C12.2977 83.0161 11.874 83.1157 11.6293 83.1747C11.6039 83.2642 11.6023 83.3351 11.6175 83.3925C11.636 83.4651 11.6732 83.5528 11.7289 83.6575C11.7896 83.7605 11.8301 83.8466 11.8521 83.9141C12.0445 84.2382 12.3703 84.4779 12.8379 84.6298C13.1012 84.7159 13.3291 84.7479 13.5249 84.7294L13.1333 84.1048C13.1265 84.0441 13.1316 83.958 13.1451 83.8415C13.1619 83.7267 13.1552 83.6423 13.1333 83.5866C13.1181 83.5427 13.0691 83.4938 12.9577 83.4566L12.8159 83.4111L13.3476 83.168C13.513 83.1427 13.6582 83.1528 13.7899 83.195C14.0836 83.2912 14.2844 83.482 14.384 83.7672C14.4684 83.8331 14.563 83.8837 14.6693 83.9191C14.8381 83.9732 14.9951 83.9563 15.1436 83.8719C15.3901 83.7655 15.5909 83.5073 15.731 83.0768L15.861 82.6768C15.8492 82.611 15.8441 82.508 15.8441 82.3746L15.8475 82.373ZM6.59573 72.1928C6.72064 72.1219 6.86412 72.1168 7.01772 72.1658C7.119 72.1979 7.22366 72.2552 7.33337 72.3346L7.39077 72.3768L6.81179 72.9017L6.07752 72.5878L6.14842 72.527C6.33578 72.3667 6.48432 72.2552 6.59404 72.1928H6.59573Z" fill="black"/>
<path fill-rule="evenodd" clip-rule="evenodd" d="M28.676 80.2979L26.4445 81.8914L25.5127 79.2328L24.7177 79.7156L24.0071 83.7515C23.8653 84.5601 24.2586 85.1627 24.9118 85.2775C25.1633 85.3214 25.511 85.2201 25.8554 85.0783C26.1778 84.9466 26.5086 84.7744 26.777 84.6343L26.8277 84.7711L22.7917 86.957C22.0119 85.9375 21.1206 84.8588 19.8867 84.3406L19.9087 84.2191C20.388 84.29 21.1544 84.2461 21.259 83.6486L21.9359 79.8067C22.0659 79.0674 21.8194 78.6691 21.4363 78.6015C21.2489 78.5678 21.1004 78.588 20.9586 78.6437C20.8894 78.6707 20.8219 78.7062 20.7526 78.7467C20.702 78.7771 20.6497 78.8108 20.594 78.8463L20.5045 78.6589L23.6205 76.7161C24.4713 77.5094 24.9675 78.3078 24.7768 79.3847L24.7531 79.5198L27.6008 77.5921L28.676 80.2946V80.2979Z" fill="black"/>
<path fill-rule="evenodd" clip-rule="evenodd" d="M38.1391 80.2578L34.2146 83.2539L34.2281 83.2944C34.618 84.422 35.7253 85.3369 37.0571 85.2204C37.3829 85.1917 37.6885 85.0364 37.9653 84.8508C38.2219 84.6803 38.4582 84.4794 38.6709 84.3207L38.7536 84.4288C38.2033 84.9301 37.6277 85.4129 37.0639 85.9125C36.4951 86.4172 35.9346 86.9388 35.4198 87.5178C33.0398 86.8594 31.7215 85.9226 31.4953 83.3282C31.2252 80.2375 31.3771 79.5944 33.033 78.7048L35.8401 77.2059L38.1408 80.2578H38.1391ZM35.9836 81.625L33.8804 78.5006L33.7521 78.5124L33.7555 78.5698C33.8449 79.8172 33.9175 81.0646 34.0019 82.047C34.0458 82.5433 34.0829 82.7509 34.1403 82.9585L34.164 83.0429L35.9836 81.6284V81.625Z" fill="black"/>
<path fill-rule="evenodd" clip-rule="evenodd" d="M45.7833 80.5345L43.7308 77.8523L43.5282 77.9637L44.5055 82.1955C44.9275 84.0219 46.4062 84.4793 47.4831 84.2295C48.1229 84.0826 48.5584 83.7028 48.955 83.2927L49.0631 83.4142C48.5179 83.9763 47.9574 84.5299 47.4291 85.0988C46.9025 85.6676 46.4062 86.2534 45.9943 86.8813C45.8238 86.7935 45.628 86.7159 45.4525 86.6669C45.0508 86.5268 44.6608 86.4239 44.2557 86.2652C42.6251 85.6491 42.507 85.1444 41.9145 82.5803C41.2646 79.7665 41.3524 79.1943 42.2639 78.6305L45.7513 76.4429L47.7009 78.8668L45.7833 80.5345Z" fill="black"/>
<path fill-rule="evenodd" clip-rule="evenodd" d="M51.3104 76.5929C50.9593 75.4434 49.9296 74.2129 49.2949 73.9192L49.3759 73.7673C49.7878 74.0019 50.3465 74.5066 50.7061 75.0721L50.7297 75.1092L50.8563 75.0704L50.8479 75.0197C50.5609 73.2018 52.3299 71.9848 54.7066 71.2589L54.7589 71.2421L54.8247 71.4564L54.4821 71.5611C53.0152 72.0101 53.0996 73.1343 53.498 74.4374L54.4095 77.42L54.4787 77.3373C55.2788 76.3668 56.0114 75.3607 56.6967 74.272C58.177 74.856 58.7341 75.3118 58.8235 75.6021C58.864 75.7321 58.7661 75.9042 58.6649 76.0359L57.5795 77.4217L57.647 77.4521C58.9619 78.0463 59.8532 79.2245 60.4642 80.5141C60.5031 80.5917 60.547 80.688 60.5976 80.7842C60.6499 80.8838 60.709 80.9834 60.7782 81.0694C60.9166 81.2433 61.1074 81.3783 61.3589 81.3024C61.504 81.2585 61.6627 81.1049 61.7876 80.9766L61.8585 81.0509C61.1816 81.9945 60.5773 82.9887 59.9511 83.9728C58.8387 83.6993 58.4809 83.0275 58.0639 81.986C57.6487 80.9563 57.0107 80.0465 56.0029 79.5098L55.2822 80.2744L55.9219 82.3692C56.0704 82.8553 56.2798 83.1524 56.6798 83.0309C56.8351 82.9836 56.9904 82.8553 57.0984 82.749L57.1811 82.8503C56.4924 83.6014 55.9101 84.4488 55.4307 85.34C54.6137 84.7678 53.7022 84.3931 52.6793 84.3863L52.6422 84.2665C53.4338 84.0251 53.4473 83.598 53.2279 82.8773L51.307 76.5946L51.3104 76.5929ZM57.1508 77.7576L57.1119 77.7205C56.7591 77.3863 55.7734 76.6132 55.245 76.7752C55.0391 76.8377 54.5833 77.4116 54.4804 77.5787L55.2366 80.1208L57.1508 77.7576Z" fill="black"/>
<path fill-rule="evenodd" clip-rule="evenodd" d="M27.6957 3.54502C27.6957 3.54502 30.3728 3.05213 31.3029 3.02006C32.2329 2.98798 32.7545 1.73888 34.0829 1.69331C35.4131 1.64773 37.4488 1.87392 38.2607 2.24528L39.0726 2.61663C39.0726 2.61663 39.238 3.54333 40.1681 3.50957C41.0982 3.4775 50.2183 6.48546 51.5079 9.13558C51.5079 9.13558 55.8122 14.2079 57.1187 20.2154C58.4252 26.2229 57.9289 24.3459 57.9289 24.3459C57.9289 24.3459 61.4804 28.9439 62.7008 29.5668C63.9212 30.1897 65.8894 33.2145 65.8894 33.2145C65.8894 33.2145 67.1402 34.7371 65.3121 35.7634C65.3121 35.7634 62.8798 38.5418 60.0575 38.6413L57.2622 39.5377L56.6106 39.9597C56.6106 39.9597 56.9972 47.2298 57.8749 49.4613C58.751 51.6928 58.6092 58.1509 56.3051 46.4229C53.9993 34.6949 56.165 50.0217 55.8713 49.2334C55.5776 48.4451 54.6104 40.6956 54.6104 40.6956C54.6104 40.6956 54.0652 40.3158 53.5335 40.3344C53.0018 40.353 52.3603 42.9642 51.9366 44.1492C51.2766 45.9958 49.3844 47.2298 49.1312 48.2966C48.6755 50.2107 47.3403 50.9197 46.7343 53.1647C46.4389 54.2551 45.8245 55.8013 45.2337 57.2378C44.7813 58.3366 44.3441 59.373 44.0741 60.0955C43.8529 60.6897 43.0917 61.0424 42.7524 61.6839C41.8983 63.2908 41.3547 65.2556 40.6914 66.1941C37.3171 67.9952 35.2358 69.3608 31.3045 69.4992C29.7533 68.748 27.7733 67.5243 26.5141 66.5216C23.6141 64.2125 22.3262 61.2163 22.3262 61.2163C22.3262 61.2163 21.9008 60.5377 21.4924 60.3858C21.0856 60.2339 21.2679 59.1317 21.2679 59.1317L21.0113 58.1526C21.0113 58.1526 20.9286 56.8833 19.725 55.0501C18.5198 53.217 19.087 53.1832 19.087 53.1832L18.2363 53.033L17.8902 52.2413L17.5796 52.0726L17.5509 50.4605L17.0665 49.2857L16.9872 47.4762L15.8579 43.9315C15.8579 43.9315 15.2452 40.8087 14.5396 40.3935C13.834 39.9782 5.91912 39.3739 3.50194 36.7863C1.08476 34.1986 1.48481 33.9319 2.44864 33.6466C3.41416 33.3614 9.1769 29.1043 10.821 25.7756C12.4651 22.4486 13.753 22.403 13.753 22.403L12.1022 21.9574L12.5073 19.1453C12.5073 19.1453 14.889 13.5277 15.7887 12.2701C16.6884 11.0126 18.7072 8.48909 19.0077 8.10085C19.3081 7.71262 23.3474 4.49028 25.5654 4.0666C27.7834 3.64292 27.7007 3.55346 27.7007 3.55346L27.6957 3.54502Z" fill="black"/>
<path fill-rule="evenodd" clip-rule="evenodd" d="M27.6957 3.54502C27.6957 3.54502 30.3728 3.05213 31.3029 3.02006C32.2329 2.98798 32.7545 1.73888 34.0829 1.69331C35.4131 1.64773 37.4488 1.87392 38.2607 2.24528L39.0726 2.61663C39.0726 2.61663 39.238 3.54333 40.1681 3.50957C41.0982 3.4775 50.2183 6.48546 51.5079 9.13558C51.5079 9.13558 55.8122 14.2079 57.1187 20.2154C58.4252 26.2229 57.9289 24.3459 57.9289 24.3459C57.9289 24.3459 61.4804 28.9439 62.7008 29.5668C63.9212 30.1897 65.8894 33.2145 65.8894 33.2145C65.8894 33.2145 67.1402 34.7371 65.3121 35.7634C65.3121 35.7634 62.8798 38.5418 60.0575 38.6413L57.2622 39.5377L56.6106 39.9597C56.6106 39.9597 56.9972 47.2298 57.8749 49.4613C58.751 51.6928 58.6092 58.1509 56.3051 46.4229C53.9993 34.6949 56.165 50.0217 55.8713 49.2334C55.5776 48.4451 54.6104 40.6956 54.6104 40.6956C54.6104 40.6956 54.0652 40.3158 53.5335 40.3344C53.0018 40.353 52.3603 42.9642 51.9366 44.1492C51.2766 45.9958 49.3844 47.2298 49.1312 48.2966C48.6755 50.2107 47.3403 50.9197 46.7343 53.1647C46.4389 54.2551 45.8245 55.8013 45.2337 57.2377C44.7813 58.3366 44.3441 59.373 44.0741 60.0955C43.8529 60.6897 43.0917 61.0424 42.7524 61.6839C41.8983 63.2908 41.3547 65.2556 40.6914 66.1941C37.3171 67.9952 35.2358 69.3608 31.3045 69.4992C29.7533 68.748 27.7733 67.5243 26.5141 66.5216C23.6141 64.2125 22.3262 61.2163 22.3262 61.2163C22.3262 61.2163 21.9008 60.5377 21.4924 60.3858C21.0856 60.2339 21.2679 59.1317 21.2679 59.1317L21.0113 58.1526C21.0113 58.1526 20.9286 56.8833 19.725 55.0501C18.5198 53.217 19.087 53.1832 19.087 53.1832L18.2363 53.033L17.8902 52.2413L17.5796 52.0726L17.5509 50.4605L17.0665 49.2857L16.9872 47.4762L15.8579 43.9315C15.8579 43.9315 15.2452 40.8087 14.5396 40.3935C13.834 39.9782 5.91912 39.3739 3.50194 36.7863C1.08476 34.1986 1.48481 33.9319 2.44864 33.6466C3.41416 33.3614 9.1769 29.1043 10.821 25.7756C12.4651 22.4486 13.753 22.403 13.753 22.403L12.1022 21.9574L12.5073 19.1453C12.5073 19.1453 14.889 13.5277 15.7887 12.2701C16.6884 11.0126 18.7072 8.48909 19.0077 8.10085C19.3081 7.71262 23.3474 4.49028 25.5654 4.0666C27.7834 3.64292 27.7007 3.55346 27.7007 3.55346L27.6957 3.54502Z" stroke="black" stroke-width="0.12491" stroke-miterlimit="3.86"/>
<path fill-rule="evenodd" clip-rule="evenodd" d="M16.9738 38.7209C16.9738 38.7209 16.8253 44.5174 18.4457 47.2621C18.4457 47.2621 20.3903 50.6178 21.1364 51.3132C21.8824 52.0087 23.2615 53.7979 23.2615 53.7979L24.0194 58.2474L24.9022 58.5377C24.9022 58.5377 25.5673 56.0244 26.2307 56.0328C26.894 56.0395 28.0013 56.1223 28.0013 56.1223L28.8453 55.28L29.8362 55.1854L30.2902 54.387L31.1663 54.4461L31.3503 54.8006L31.806 54.9052L32.0255 55.1686L32.5369 55.1804L32.731 55.5652L33.4282 55.7222L35.4554 55.4099L36.5577 54.198L37.1721 53.6747L36.6168 53.3033L36.5594 50.8068L36.475 50.1181L36.0378 49.6911L35.9399 49.4531L36.1492 49.4159L36.1897 48.8724L35.7964 48.8252L35.8774 48.5517L36.2066 48.5095L35.4892 47.8124L35.9011 47.5271L35.8589 47.1979L35.3812 47.3347L35.425 46.8823L34.9187 46.7793L34.7921 46.6038L34.3414 46.619L34.3177 45.937L34.9187 45.9168L34.9896 45.6433L35.2309 45.6349L35.2866 45.483L34.9119 45.1049L34.9018 44.8044L34.5811 44.8162L34.5659 44.3655L34.6823 44.271L35.0402 43.5654L34.684 43.427L35.1212 43.292L35.0959 42.5695L34.7971 42.3687L35.0993 41.8251L34.9355 41.4403L35.4335 41.0318L34.5051 40.9136L34.1473 40.1726L34.9541 40.2958L36.691 39.1818L38.0667 38.9235L39.5437 38.3901L40.0771 37.2963L38.6997 36.6515L36.7856 36.7477C36.7856 36.7477 31.9293 38.8053 31.9681 39.0737C32.0069 39.3438 31.8077 42.2606 31.8077 42.2606C31.8077 42.2606 30.6548 46.0552 30.1552 46.4029C29.6556 46.7523 27.3143 48.4285 26.3201 48.4032C25.3259 48.3778 21.5702 48.3188 21.0165 47.1439C20.4629 45.9691 19.045 43.5283 18.866 42.4817C18.6888 41.4335 18.5841 39.3202 18.3259 38.7969C18.0659 38.2736 17.0329 37.9782 17.0329 37.9782L16.9688 38.7243L16.9738 38.7209Z" fill="white"/>
<path fill-rule="evenodd" clip-rule="evenodd" d="M30.1816 35.563L34.4674 35.7909L33.3922 37.462L32.1549 38.0089L30.2036 36.1909L30.1816 35.563Z" fill="white"/>
<path fill-rule="evenodd" clip-rule="evenodd" d="M30.1816 35.563L34.4674 35.7909L33.3922 37.462L32.1549 38.0089L30.2036 36.1909L30.1816 35.563Z" stroke="white" stroke-width="0.12491" stroke-miterlimit="3.86"/>
<path fill-rule="evenodd" clip-rule="evenodd" d="M42.7175 41.5408L42.7395 41.7281L42.5201 41.7821L42.5302 42.0336L41.1764 42.0033L41.168 41.7821L40.7257 41.7045L40.6413 41.534L39.3652 41.453L39.3787 41.8767L39.8699 41.9695L39.8902 42.5198L40.9739 42.5282L41.1292 42.8844L42.3732 42.935L42.3698 42.432L43.1564 42.4371L43.3269 42.3358L43.4603 42.1113L43.5936 41.8716L44.0983 41.9172L44.0797 41.3973L43.8164 41.0462L43.2594 40.8926L42.7175 41.5408Z" fill="white"/>
<path fill-rule="evenodd" clip-rule="evenodd" d="M42.7175 41.5408L42.7395 41.7281L42.5201 41.7821L42.5302 42.0336L41.1764 42.0033L41.168 41.7821L40.7257 41.7045L40.6413 41.534L39.3652 41.453L39.3787 41.8767L39.8699 41.9695L39.8902 42.5198L40.9739 42.5282L41.1292 42.8844L42.3732 42.935L42.3698 42.432L43.1564 42.4371L43.3269 42.3358L43.4603 42.1113L43.5936 41.8716L44.0983 41.9172L44.0797 41.3973L43.8164 41.0462L43.2594 40.8926L42.7175 41.5408Z" stroke="white" stroke-width="0.12491" stroke-miterlimit="3.86"/>
<path fill-rule="evenodd" clip-rule="evenodd" d="M28.8398 60.1361L28.4499 58.8921L27.6869 59.547L26.6117 60.2762L26.2285 60.1328C26.2285 60.1328 26.318 60.916 26.5121 61.0341C26.7045 61.1523 27.7426 62.0604 27.7426 62.0604L27.7815 63.1914L29.1082 64.2463L30.04 63.9307L30.0552 63.4901L29.2483 62.8892L28.7571 61.4291L28.8381 60.1378L28.8398 60.1361Z" fill="white"/>
<path fill-rule="evenodd" clip-rule="evenodd" d="M28.8398 60.1361L28.4499 58.8921L27.6869 59.547L26.6117 60.2762L26.2285 60.1328C26.2285 60.1328 26.318 60.916 26.5121 61.0341C26.7045 61.1523 27.7426 62.0604 27.7426 62.0604L27.7815 63.1914L29.1082 64.2463L30.04 63.9307L30.0552 63.4901L29.2483 62.8892L28.7571 61.4291L28.8381 60.1378L28.8398 60.1361Z" stroke="white" stroke-width="0.503016" stroke-miterlimit="3.86"/>
<path fill-rule="evenodd" clip-rule="evenodd" d="M31.0517 59.5255L29.8516 59.3787L30.0339 60.0961L30.9842 61.2253L31.5902 60.5754L31.7944 60.0961L31.0517 59.5255Z" fill="white"/>
<path fill-rule="evenodd" clip-rule="evenodd" d="M31.0517 59.5255L29.8516 59.3787L30.0339 60.0961L30.9842 61.2253L31.5902 60.5754L31.7944 60.0961L31.0517 59.5255Z" stroke="white" stroke-width="0.503016" stroke-miterlimit="3.86"/>
<path fill-rule="evenodd" clip-rule="evenodd" d="M31.6568 66.3838L31.0762 66.3467L31.2264 66.7687L31.3581 67.3341L31.2365 67.4709C31.2365 67.4709 31.5775 67.5586 31.6585 67.4979C31.7395 67.4371 32.2831 67.1502 32.2831 67.1502L32.7608 67.3139L33.4123 66.9307L33.4292 66.4918L33.2486 66.4142L32.8688 66.6539L32.1818 66.6252L31.6568 66.3855V66.3838Z" fill="white"/>
<path fill-rule="evenodd" clip-rule="evenodd" d="M31.6568 66.3838L31.0762 66.3467L31.2264 66.7687L31.3581 67.3341L31.2365 67.4709C31.2365 67.4709 31.5775 67.5586 31.6585 67.4979C31.7395 67.4371 32.2831 67.1502 32.2831 67.1502L32.7608 67.3139L33.4123 66.9307L33.4292 66.4918L33.2486 66.4142L32.8688 66.6539L32.1818 66.6252L31.6568 66.3855V66.3838Z" stroke="white" stroke-width="0.2245" stroke-miterlimit="3.86"/>
</g>
<defs>
<clipPath id="clip0_1616_436">
<rect width="68" height="89.4254" fill="white"/>
</clipPath>
</defs>
</svg>
