<svg width="286" height="197" viewBox="0 0 286 197" fill="none" xmlns="http://www.w3.org/2000/svg">
<g clip-path="url(#clip0_1616_359)">
<path d="M63.3945 95.8732C50.4195 90.2586 39.8744 66.7857 39.5441 63.6481C39.2139 60.4869 31.2874 54.8723 31.2874 58.3402C31.2874 61.2182 23.9034 72.8485 21.9218 75.1132C21.0253 76.1512 18.5719 81.9074 19.3032 80.1617C20.2468 77.897 17.699 92.0279 16.8498 90.9663C16.0005 89.9047 13.3347 82.568 13.3347 79.9966C13.3347 77.4252 12.5798 72.1172 11.8485 69.1212C11.0936 66.1015 12.1788 58.8356 12.1788 55.6272C12.1788 52.4189 11.1172 39.6562 11.1172 39.6562C11.5418 20.5005 30.1786 15.7115 35.8168 15.3812C41.455 15.0746 48.2728 12.1965 50.6083 11.2293C52.9437 10.262 57.7327 5.23718 57.7327 5.23718L53.6751 10.1677C54.43 10.38 52.9437 11.0169 58.1573 9.53071C63.3709 8.04449 69.4337 0.448242 69.4337 0.448242C69.3394 4.03405 61.979 9.0589 61.979 9.0589L64.6448 9.79021C68.3722 9.50712 71.8872 5.709 71.8872 5.709C71.5569 6.77059 66.4613 10.0733 66.4613 10.0733C66.4613 10.0733 66.0367 10.7103 68.4901 11.6539C70.9436 12.5975 70.7312 12.9514 70.7312 12.9514C75.5202 9.55431 81.0168 13.895 81.0168 13.895C82.2436 23.5673 111.19 106.418 111.19 106.418C106.495 109.886 83.8006 101.323 83.8006 101.323C71.7221 98.421 63.3945 95.8968 63.3945 95.8968V95.8732Z" fill="#000100" stroke="#221E1F" stroke-width="0.330272"/>
<path fill-rule="evenodd" clip-rule="evenodd" d="M33.3407 35.5514C33.3407 35.5514 33.3171 35.4334 33.2935 35.3862C33.0576 35.4806 32.7981 35.5278 32.5622 35.575C32.5622 35.4098 32.7273 35.2919 32.8453 35.1975C32.9632 35.0796 33.0812 34.9852 33.1991 34.8672C33.1991 34.8201 33.1991 34.7729 33.1756 34.7257C33.0812 34.7965 32.9161 35.056 32.7745 35.1739C32.7037 35.2447 32.633 35.2919 32.5858 35.3627C32.4678 35.4806 32.3027 35.7401 32.1847 35.5514C32.0904 35.3862 32.3499 35.3155 32.3027 35.1267C32.3735 35.0324 32.4442 34.8908 32.4914 34.7729C32.5386 34.6313 32.5622 34.4898 32.633 34.3718C32.7037 34.2067 32.8925 34.0416 32.7037 33.8528C32.4678 33.8528 32.3971 34.1359 32.5622 34.2775C32.515 34.6549 32.2791 34.9144 32.1611 35.2211C31.8781 35.5278 31.6421 35.8581 31.3826 36.1883C31.1939 36.3299 30.8636 36.4242 30.958 36.7073C31.0524 36.9904 31.4534 36.8489 31.6421 36.7073C31.9016 36.5422 32.114 36.2119 32.1847 36.0232C32.4678 35.8109 32.8925 35.6457 33.3407 35.5986V35.5514Z" fill="#000100"/>
<path fill-rule="evenodd" clip-rule="evenodd" d="M33.4359 36.0945C33.1764 36.236 32.8933 36.3304 32.7754 36.5899C32.8226 36.6842 32.9641 36.637 33.0585 36.6135C33.2 36.5663 33.3652 36.4719 33.4831 36.4483C33.4831 36.3304 33.4359 36.2124 33.4123 36.118L33.4359 36.0945Z" fill="#000100"/>
<path fill-rule="evenodd" clip-rule="evenodd" d="M31.0221 44.9641C30.8098 44.9641 30.5975 45.2236 30.7154 45.4123C30.7862 45.5066 31.0457 45.5066 31.1872 45.5066C31.3996 45.5066 31.6591 45.4123 31.6119 45.2236C31.6119 45.1764 31.4467 45.1056 31.376 45.082C31.2344 45.0112 31.1872 44.9641 31.0457 44.9641H31.0221Z" fill="#000100"/>
<path fill-rule="evenodd" clip-rule="evenodd" d="M23.3364 52.7963C23.3364 52.7963 23.2892 52.7963 23.2656 52.8199C23.2656 52.8435 23.3128 52.8671 23.3364 52.8199V52.7727V52.7963Z" fill="#000100"/>
<path fill-rule="evenodd" clip-rule="evenodd" d="M3.94647 57.1845C3.94647 57.1845 3.89929 57.1845 3.8757 57.1845C3.85211 57.2317 3.8757 57.3261 3.97006 57.2789C3.97006 57.2081 3.97006 57.2317 3.97006 57.1845H3.94647Z" fill="#000100"/>
<path fill-rule="evenodd" clip-rule="evenodd" d="M4.67398 66.9975C4.67398 66.9975 4.67398 66.9975 4.65039 66.9975C4.65039 66.9975 4.65039 66.9975 4.65039 67.0211C4.65039 67.0211 4.67398 67.0211 4.69757 67.0211C4.69757 67.0211 4.69757 67.0211 4.69757 66.9975H4.67398Z" fill="#000100"/>
<path fill-rule="evenodd" clip-rule="evenodd" d="M4.84322 67.5401C4.77245 67.7288 4.60732 68.0119 4.46577 68.3186C4.34782 68.6017 4.20627 68.9083 4.25345 69.1914C4.30063 69.4745 4.60732 69.5925 4.914 69.4037C5.00836 69.3566 5.07913 69.2386 5.1735 69.1442C5.36222 68.9555 5.43299 68.8612 5.52736 68.6253C5.64531 68.3893 5.73968 68.0827 5.50377 67.8468C5.38581 67.7052 5.12631 67.5637 4.86681 67.5637L4.84322 67.5401Z" fill="#000100"/>
<path fill-rule="evenodd" clip-rule="evenodd" d="M8.16992 73.4378C8.16992 73.4378 8.19351 73.5086 8.24069 73.485C8.24069 73.4378 8.2171 73.4142 8.16992 73.4378Z" fill="#000100"/>
<path fill-rule="evenodd" clip-rule="evenodd" d="M14.7047 72.613C14.5631 72.8725 14.8698 72.9433 14.9642 73.132C14.9878 73.1792 15.0114 73.25 15.035 73.3207C15.1057 73.4859 15.2237 73.7218 15.2945 73.8869C15.3416 73.9813 15.3652 74.0756 15.3888 74.1464C15.436 74.2408 15.554 74.3823 15.6247 74.5003C15.7427 74.689 15.8842 74.9957 16.1201 75.0429C16.1201 74.9485 16.1201 74.8777 16.0966 74.807C15.9078 74.1936 15.4596 73.7218 15.1765 73.2028C14.9642 73.0848 14.9642 72.6838 14.7519 72.613C14.7519 72.613 14.7283 72.613 14.7047 72.613Z" fill="#000100"/>
<path fill-rule="evenodd" clip-rule="evenodd" d="M0.0760175 76.0572C0.0760175 76.0572 -0.0183458 76.1515 0.0288359 76.1987C0.0996084 76.1987 0.123199 76.1044 0.0760175 76.0572Z" fill="#000100"/>
<path fill-rule="evenodd" clip-rule="evenodd" d="M15.7116 73.4378C15.7116 73.4378 15.4757 73.5086 15.5464 73.5793C15.6644 73.5793 15.6644 73.485 15.7116 73.4378Z" fill="#000100"/>
<path fill-rule="evenodd" clip-rule="evenodd" d="M7.90452 77.236C8.25838 77.0001 8.44711 76.5755 8.58865 76.1508C8.68301 75.8913 8.77738 75.4903 8.65942 75.1364C8.58865 74.9005 8.35274 74.7826 8.06965 74.9477C8.02247 74.9713 7.83374 75.1836 7.78656 75.2544C7.57425 75.5611 7.4327 76.1037 7.40911 76.5755C7.38552 76.9765 7.50347 77.3304 7.92811 77.2124L7.90452 77.236Z" fill="#000100"/>
<path fill-rule="evenodd" clip-rule="evenodd" d="M14.3912 74.8062C14.1789 74.8062 14.061 75.0185 13.943 75.1837C13.8486 75.3016 13.8015 75.4432 13.7307 75.6791C13.7307 75.7499 13.7307 75.8206 13.7071 75.8914C13.7071 75.9622 13.6363 76.0094 13.6363 76.0565C13.6363 76.1273 13.6363 76.2217 13.6127 76.2924C13.6127 76.434 13.6127 76.5048 13.6127 76.6935C13.6127 76.8822 13.542 77.0945 13.7071 77.2597C13.943 77.4956 14.4148 77.0945 14.5564 76.9058C14.6035 76.8586 14.6035 76.7643 14.6507 76.6935C14.7215 76.5519 14.7923 76.4812 14.8395 76.2924C14.8395 76.2688 14.8395 76.1981 14.8395 76.1745C14.8866 75.9386 14.9338 75.6555 14.8395 75.3488C14.7687 75.1601 14.6035 74.8298 14.3912 74.8298V74.8062Z" fill="#000100"/>
<path fill-rule="evenodd" clip-rule="evenodd" d="M14.2964 101.134C14.2964 101.134 13.9897 101.228 13.8954 101.346C13.801 101.441 13.7066 101.677 13.7302 101.818C13.7302 101.96 13.8482 102.148 13.9425 102.243C14.0605 102.384 14.1549 102.455 14.3672 102.455C14.721 102.455 15.0749 102.148 15.0513 101.795C15.0513 101.346 14.721 101.087 14.2964 101.158V101.134Z" fill="#000100"/>
<path fill-rule="evenodd" clip-rule="evenodd" d="M19.8896 104.602C19.9603 104.484 19.9367 104.366 19.9367 104.248C19.9367 104.13 19.9839 104.012 19.9839 103.894C19.9839 103.824 19.9367 103.729 19.9603 103.658C19.9839 103.375 20.2434 103.163 20.3142 102.833C20.3142 102.786 20.3142 102.715 20.3142 102.644C20.3142 102.644 20.2906 102.644 20.2906 102.597C20.2906 102.597 20.3378 102.526 20.3378 102.479C20.3378 102.267 20.2906 101.983 20.1962 101.818C20.1726 101.771 20.1019 101.724 20.0547 101.677C20.0075 101.63 19.9603 101.559 19.9131 101.512C19.8188 101.441 19.6301 101.37 19.4649 101.323C19.2998 101.276 19.0875 101.252 18.9459 101.276C18.8044 101.276 18.6864 101.346 18.5685 101.394C18.4741 101.417 18.4033 101.441 18.3562 101.464C18.309 101.488 18.2854 101.559 18.2146 101.606C18.1674 101.653 18.0731 101.677 18.0495 101.7C18.0023 101.748 17.9551 101.842 17.8843 101.913C17.8372 101.983 17.7664 102.054 17.7428 102.125C17.6956 102.267 17.7192 102.432 17.6484 102.597C17.5777 102.786 17.3889 102.903 17.271 103.069C17.2238 103.139 17.153 103.234 17.1058 103.328C16.9407 103.635 16.8227 104.154 17.0587 104.696C17.1058 104.767 17.1766 104.885 17.271 104.979C17.3417 105.05 17.4361 105.145 17.5305 105.192C17.6012 105.215 17.7428 105.215 17.8843 105.239C18.191 105.286 18.6864 105.239 19.0639 105.145C19.4177 105.027 19.6536 104.791 19.9131 104.649L19.8896 104.602Z" fill="#000100"/>
<path fill-rule="evenodd" clip-rule="evenodd" d="M4.46353 57.4206C4.39276 57.2554 4.18044 57.3498 4.13326 57.1375C4.08608 56.9723 4.2748 56.5477 4.48712 56.4533C4.77021 56.3118 5.00612 56.5477 5.21844 56.5477C5.43075 56.5477 5.66666 56.4297 5.90257 56.3826C5.99693 56.3826 6.06771 56.3826 6.13848 56.359C6.3508 56.2882 6.49234 56.1467 6.65748 56.0287C6.91698 55.84 7.20007 55.6748 7.41238 55.4861C7.57752 55.3446 7.74266 55.203 7.93138 55.1087C8.16729 54.9671 8.30884 54.7312 8.61552 54.6368C8.89861 54.3537 9.27606 54.1178 9.58274 53.9055C9.84224 53.7168 10.0546 53.4573 10.3612 53.3865C10.4084 53.245 10.55 53.1978 10.6915 53.1034C10.7151 53.1034 10.7387 53.0563 10.7623 53.0327C10.8802 52.9619 10.9038 52.9147 10.9982 52.8203C11.0218 52.8203 11.069 52.7968 11.0926 52.7732C11.1869 52.7024 11.2341 52.6316 11.3049 52.5373C11.3521 52.4901 11.4228 52.4429 11.4464 52.3957C11.47 52.3485 11.4464 52.3013 11.4936 52.2542C11.5172 52.207 11.5644 52.1598 11.588 52.1362C11.6351 52.0418 11.6823 51.9475 11.7295 51.8531C11.7767 51.7588 11.8475 51.688 11.9182 51.6172C11.9418 51.57 11.989 51.5228 12.0126 51.4993C12.0362 51.4521 12.0362 51.3813 12.0834 51.3341C12.1306 51.2633 12.2249 51.1926 12.2721 51.1454C12.2957 51.0982 12.3193 51.051 12.3429 51.0274C12.4844 50.8387 12.6731 50.6972 12.8147 50.532C12.8619 50.5084 12.909 50.4848 12.9562 50.4613C12.9798 50.3669 13.0742 50.3197 13.145 50.2489C13.2157 50.1782 13.2865 50.1074 13.3573 50.0366C13.4752 49.9423 13.6168 49.8951 13.7347 49.8243C13.8527 49.7535 13.947 49.6356 14.065 49.5412C14.183 49.4469 14.3245 49.3761 14.4189 49.2817C14.6312 49.0694 14.7491 48.8099 14.9143 48.5976C14.9143 48.4324 15.0558 48.3145 15.1266 48.1729C15.3625 47.7483 15.6456 47.3945 15.9287 47.017C16.1174 46.7811 16.3061 46.5216 16.4949 46.2621C16.5892 46.1441 16.66 46.0026 16.7544 45.861C16.8487 45.7431 16.9903 45.6251 17.0374 45.4836C17.1082 45.3185 17.1082 45.0826 17.0374 44.9174C16.9903 44.7995 16.8251 44.6815 16.8015 44.4928C16.8015 44.3512 16.8487 44.2569 16.9667 44.1861C17.1082 44.0681 17.2734 44.021 17.4385 43.9266C17.58 43.8322 17.6508 43.7143 17.7452 43.6671C17.9103 43.4312 17.9103 43.0066 18.1226 42.7471C18.2406 42.6055 18.4293 42.4876 18.5473 42.346C18.6652 42.2045 18.7596 42.0393 18.8775 41.8742C18.9955 41.7327 19.0899 41.5439 19.1842 41.3788C19.3729 41.0957 19.5617 40.8834 19.8212 40.6711C20.0335 40.5059 20.1986 40.388 20.4109 40.2228C20.5053 40.1521 20.6233 40.0813 20.7176 40.0105C20.9535 39.8454 21.1658 39.7746 21.5197 39.6802C21.8028 39.6095 22.2038 39.4443 22.4397 39.4679C22.8644 39.5151 23.2418 39.4679 23.6193 39.5151C23.6901 39.5151 23.7608 39.5623 23.8552 39.5623C23.8788 39.5623 23.9024 39.5859 23.926 39.6095C24.2327 39.7038 24.5393 39.8454 24.8224 39.9633C25.0583 40.0813 25.2707 40.2228 25.483 40.3408C25.5301 40.3644 25.5537 40.4116 25.6009 40.4352C25.6953 40.5059 25.7896 40.5531 25.8604 40.6239C25.9076 40.6711 25.9548 40.7182 26.002 40.7654C26.0256 40.789 26.0727 40.789 26.0963 40.8126C26.1199 40.8362 26.1199 40.8834 26.1435 40.907C26.2143 40.907 26.2379 40.9777 26.2851 41.0013C26.3322 41.0485 26.403 41.0485 26.4502 41.0957C26.5446 41.1665 26.6153 41.2844 26.7569 41.308C26.9928 41.308 27.1815 41.1665 27.3231 41.0721C27.4174 41.0249 27.5354 40.9777 27.6297 40.907C27.8185 40.789 27.9836 40.6239 28.1487 40.5059C28.3375 40.3644 28.5026 40.2464 28.6913 40.1049C28.88 39.9869 28.9744 39.7982 29.1395 39.6331C29.2575 39.5387 29.3755 39.4679 29.4462 39.3736C29.5406 39.2792 29.5878 39.1612 29.6585 39.0433C29.7293 38.9253 29.8237 38.831 29.918 38.7366C30.0124 38.6187 30.0832 38.5007 30.2247 38.4535C30.2247 38.6658 30.0832 38.8074 29.9888 38.9725C30.036 39.0197 30.0832 39.0669 30.0832 39.1612C29.9888 39.4915 29.7765 39.8926 29.6585 40.2228C29.6114 40.3408 29.5642 40.5059 29.5642 40.6239C29.5642 40.6947 29.5642 40.789 29.5878 40.8598C29.5878 41.0721 29.635 41.1429 29.7057 41.3316C29.7529 41.4024 29.8001 41.4967 29.8237 41.5675C29.918 41.827 29.8709 42.0629 29.8945 42.3224C29.8945 42.464 29.9416 42.6291 29.9652 42.7706C29.9888 42.9358 30.0124 43.1009 30.0596 43.2425C30.1068 43.4312 30.2247 43.6671 30.2483 43.8558C30.2483 43.9266 30.2483 44.021 30.2719 44.0917C30.3191 44.1861 30.5078 44.1861 30.5314 44.2805C30.5314 44.3984 30.2955 44.5164 30.2955 44.6107C30.3663 44.8702 30.2955 45.1297 30.2955 45.3892C30.2955 45.6487 30.3427 45.9082 30.2955 46.1441C30.2719 46.3329 30.154 46.5216 30.1304 46.7103C30.1304 46.8047 30.0832 46.9226 30.0596 47.017C30.0596 47.135 30.0596 47.2293 30.0124 47.3237C29.9652 47.5124 29.8001 47.7247 29.7057 47.8899C29.5642 48.1258 29.4698 48.4324 29.2575 48.5976C29.2103 48.8807 28.998 49.0458 28.7621 49.2109C28.6677 49.3525 28.6441 49.5176 28.5262 49.5884C28.3846 49.6828 28.2431 49.6828 28.1251 49.7535C28.0308 49.8243 27.9836 49.9423 27.8892 50.0366C27.7949 50.1074 27.6533 50.1782 27.5354 50.2489C27.4174 50.3197 27.2995 50.4141 27.1815 50.4613C26.922 50.5792 26.6389 50.7208 26.4502 50.7915C26.3086 50.8387 26.1435 50.8623 25.9784 50.9095C25.8368 50.9331 25.6953 51.0039 25.5537 51.0039C25.1055 51.051 24.3034 50.9095 24.0675 51.3577C24.0203 51.4285 24.0675 51.4993 24.0203 51.5936C23.9967 51.6644 23.9496 51.7116 23.926 51.7823C23.926 51.8531 23.926 51.9475 23.9024 52.0183C23.8788 52.3013 23.8552 52.5137 23.7844 52.726C23.7372 52.8911 23.7137 53.0327 23.6429 53.1742C23.6429 53.2214 23.6665 53.2922 23.6429 53.3158C23.5721 53.4337 23.5957 53.5281 23.5485 53.646C23.5957 53.8112 23.5485 53.9527 23.5013 54.0471C23.5013 54.165 23.5249 54.3066 23.5013 54.4481C23.5013 54.5189 23.4306 54.5897 23.4306 54.684C23.3598 54.9671 23.3834 55.3446 23.3362 55.6041C23.3126 55.7456 23.289 55.8636 23.2654 55.9815C23.1947 56.3354 23.1239 56.6657 23.0531 56.9959C23.0531 57.0903 23.0531 57.1847 23.0531 57.279C23.0531 57.3734 23.0059 57.4441 23.0059 57.5385C23.0059 57.6801 23.0059 57.7744 23.0059 57.8688C23.0059 57.916 23.0059 57.9631 23.0059 57.9867C22.9823 58.1519 22.9587 58.317 22.9116 58.4586C22.888 58.5293 22.8644 58.6001 22.8408 58.6709C22.7464 58.9776 22.6049 59.2842 22.5341 59.5437C22.4869 59.7561 22.4869 60.0155 22.4633 60.275C22.4633 60.6053 22.3454 60.9592 22.2746 61.2187C22.2274 61.4074 22.1567 61.6197 22.1095 61.7849C22.0151 62.1387 21.8972 62.4926 21.8264 62.8229C21.7792 63.0116 21.7556 63.2711 21.732 63.4834C21.6848 63.8609 21.6612 64.0968 21.7792 64.427C21.85 64.6158 21.8972 64.7101 21.9679 64.8281C22.0859 65.0404 22.1567 65.1584 22.251 65.2999C22.3454 65.4414 22.4162 65.583 22.5105 65.6774C22.5341 65.7245 22.5577 65.7717 22.6049 65.8189C22.6757 65.9133 22.7464 65.9604 22.8172 66.0312C22.8644 66.102 22.888 66.1728 22.9352 66.2671C23.0531 66.4794 23.2182 66.6918 23.289 66.9748C23.407 67.0456 23.407 67.1636 23.4777 67.2815C23.5485 67.3759 23.6193 67.4938 23.6665 67.6118C23.7137 67.7533 23.7372 67.9185 23.7844 68.06C23.8788 68.3667 23.9967 68.697 24.1147 69.0037C24.1383 69.0744 24.2091 69.1452 24.2327 69.216C24.2562 69.2868 24.2327 69.3575 24.2798 69.4519C24.327 69.5463 24.3978 69.6406 24.4214 69.735C24.5157 70.0181 24.4922 70.1832 24.4686 70.3719C24.4686 70.4663 24.4686 70.5607 24.4214 70.6314C24.327 70.9617 24.1383 71.2684 24.1383 71.6458C24.1383 71.8582 24.1855 71.9761 24.2327 72.1412C24.3034 72.4243 24.2798 72.7074 24.2562 72.9197C24.2562 72.9905 24.2562 73.0613 24.2562 73.1321C24.2562 73.2736 24.2091 73.3916 24.1855 73.5331C24.1855 73.6039 24.1855 73.6982 24.1855 73.769C24.1855 73.8162 24.1619 73.8398 24.1383 73.8634C24.1383 73.887 24.1383 73.9341 24.1383 73.9577C24.1383 74.0993 24.0911 74.2644 24.0911 74.406C24.0911 74.4767 24.0911 74.5239 24.0911 74.5711C24.0911 74.6183 24.0675 74.6891 24.0439 74.7362C24.0203 74.9486 24.0439 75.1137 23.9732 75.2552C23.9732 75.4675 23.9732 75.7035 23.9732 75.9394C23.9732 76.0101 23.9496 76.0809 23.9496 76.1517C23.9496 76.2225 23.9967 76.2932 23.9967 76.364C23.9967 76.4584 23.9732 76.5291 23.9967 76.6235C23.9967 76.8122 24.0203 77.001 24.0439 77.1897C24.0439 77.3784 24.0439 77.5671 24.0911 77.7559C24.1147 77.9682 24.2091 78.1805 24.2327 78.4164C24.2327 78.558 24.2327 78.6287 24.2798 78.7467C24.3742 79.077 24.3978 79.4308 24.445 79.7139C24.445 79.8554 24.4922 79.997 24.5157 80.1385C24.5157 80.1857 24.5157 80.2565 24.5157 80.3273C24.5157 80.4216 24.5629 80.5396 24.5629 80.6339C24.5629 80.7047 24.5629 80.7755 24.5629 80.8227C24.5629 80.9406 24.6101 81.035 24.6101 81.1293C24.6101 81.3417 24.5629 81.5776 24.5393 81.7899C24.5393 81.955 24.4922 82.1438 24.4686 82.2853C24.4686 82.3561 24.4686 82.4268 24.4686 82.474C24.4686 82.5448 24.4214 82.6156 24.3978 82.7099C24.3978 82.7571 24.3978 82.8279 24.3978 82.8751C24.3978 82.9223 24.3742 82.993 24.3506 83.0402C24.327 83.2053 24.2798 83.2997 24.2562 83.4412C24.2327 83.5356 24.2562 83.63 24.2327 83.7243C24.1855 83.9603 24.0439 84.149 24.0203 84.3849C23.9496 84.4321 23.926 84.4793 23.9024 84.55C23.8552 84.6916 23.808 84.8331 23.7608 84.9747C23.6665 85.2577 23.5013 85.4465 23.4542 85.7296C23.407 85.7767 23.3598 85.8239 23.3126 85.8711C23.2182 86.1778 23.0767 86.5081 23.0059 86.8147C22.9823 86.9327 22.9352 87.0271 22.888 87.1214C22.888 87.1686 22.888 87.2394 22.8408 87.2866C22.8408 87.2866 22.8172 87.3337 22.7936 87.3573C22.7228 87.4989 22.6992 87.6168 22.6521 87.7584C22.5577 87.9707 22.4397 88.183 22.3926 88.3717C22.369 88.4661 22.3454 88.5841 22.3218 88.702C22.251 88.9379 22.2038 89.1266 22.1802 89.4097C22.1802 89.5277 22.1095 89.6692 22.1331 89.7872C22.1331 89.8344 22.1567 89.8816 22.1567 89.9523C22.1567 90.1411 22.0859 90.4241 22.0387 90.7072C22.0151 90.896 21.9679 91.1083 21.9443 91.2734C21.9208 91.4857 21.8972 91.7216 21.8264 91.8868C21.7792 92.0283 21.6377 92.1935 21.5197 92.3586C21.4725 92.4058 21.4253 92.5001 21.3546 92.5709C21.2602 92.6653 21.1658 92.7125 21.1658 92.7832C21.1658 92.854 21.2602 92.9012 21.331 92.972C21.6377 93.3022 21.8264 94.0571 21.7084 94.5054C21.6377 94.812 21.5433 94.93 21.3782 95.1187C21.2602 95.2603 21.213 95.3546 21.0715 95.4726C21.0243 95.5198 20.9535 95.5669 20.9299 95.5669C20.8356 95.6141 20.7412 95.5905 20.6704 95.6613C20.6704 95.85 20.8592 95.8972 20.9299 96.0152C20.9771 96.0859 21.0007 96.2039 21.0243 96.2747C21.1423 96.5578 21.1658 96.7465 21.1423 97.0532C21.1423 97.1947 21.0951 97.3834 21.1423 97.525C21.1658 97.6901 21.2602 97.8081 21.2602 97.9732C21.2602 98.1619 21.213 98.3507 21.1894 98.4922C21.1894 98.563 21.1423 98.6573 21.1187 98.7281C21.0007 99.0584 20.9063 99.1999 20.6468 99.3651C20.5525 99.4123 20.4109 99.4358 20.3402 99.5538C20.2694 99.5774 20.2694 99.4594 20.175 99.5066C19.7268 99.5774 19.2314 99.5302 18.8775 99.4123C18.8304 99.4123 18.8068 99.3651 18.7832 99.3651C18.736 99.3651 18.6888 99.3651 18.6416 99.3651C18.4529 99.3179 18.2406 99.1999 18.1226 99.1056C17.8631 98.8932 17.8631 98.4214 17.8631 98.0204C17.8631 97.7845 17.9103 97.4778 17.9575 97.3834C18.0283 97.2419 18.1462 97.1711 18.1934 97.0296C18.2642 96.8409 18.2406 96.6285 18.2878 96.4398C18.3585 96.1803 18.5473 95.968 18.7124 95.8029C18.7596 95.7557 18.8068 95.7085 18.8304 95.6613C18.9247 95.5905 19.0663 95.5669 19.0899 95.449C19.0191 95.2839 18.8539 95.2367 18.736 95.0951C18.6416 94.9772 18.618 94.8592 18.5473 94.6941C18.4529 94.4582 18.3821 94.3402 18.3821 94.0571C18.3821 93.774 18.5001 93.491 18.5944 93.2786C18.6888 93.0899 18.8068 92.9484 18.9719 92.8068C19.0663 92.736 19.137 92.6417 19.2078 92.6181C19.3258 92.5473 19.4673 92.5709 19.5381 92.4294C19.3729 92.0283 19.1134 91.4857 19.2314 91.0375C19.2786 90.9195 19.3493 90.8252 19.3965 90.7308C19.4909 90.4713 19.5145 90.1646 19.5617 89.858C19.5617 89.7636 19.6324 89.6692 19.656 89.5749C19.656 89.5277 19.656 89.4805 19.7032 89.4333C19.7268 89.3861 19.774 89.339 19.774 89.2918C19.8448 89.0795 19.8683 88.8671 19.9391 88.6784C19.9391 88.3953 19.9391 88.0886 19.9627 87.8291C19.9627 87.7348 20.0099 87.6404 20.0099 87.5461C20.0099 87.4517 20.0099 87.3573 20.0099 87.263C20.0099 87.1686 20.0571 87.0742 20.0571 86.9799C20.0571 86.8147 20.0571 86.6732 20.1043 86.5317C20.1043 86.4609 20.1043 86.3665 20.1043 86.2957C20.1043 86.225 20.175 86.1778 20.175 86.107C20.175 86.0598 20.175 86.0127 20.175 85.9655C20.175 85.8475 20.1986 85.706 20.2222 85.6116C20.2458 85.4465 20.1986 85.2342 20.1986 85.0218C20.1986 84.8567 20.1986 84.6916 20.1986 84.55C20.1986 84.5264 20.1514 84.4793 20.1514 84.4321C20.1514 84.3849 20.1514 84.3377 20.1514 84.3141C20.0807 83.9131 19.9627 83.4884 19.9155 83.0402C19.9155 82.8515 19.9155 82.6156 19.9155 82.3797C19.8919 82.1673 19.8212 81.9786 19.8683 81.8135C19.7976 81.5776 19.656 81.2945 19.6796 81.0586C19.5617 80.7755 19.4437 80.4924 19.3493 80.2093C19.3258 80.1149 19.3258 80.0206 19.3022 79.9262C19.255 79.7139 19.137 79.5252 19.0663 79.3129C19.0191 79.1477 19.0191 78.9826 18.9719 78.8174C18.9719 78.7703 18.9011 78.7231 18.8775 78.6523C18.7124 78.3456 18.5709 77.9918 18.4057 77.7559C18.3585 77.6851 18.3114 77.5907 18.2642 77.52C18.1226 77.284 17.9575 77.0717 17.8395 76.883C17.698 76.6471 17.5564 76.4112 17.4385 76.1517C17.4149 76.0809 17.3913 75.9865 17.3677 75.8922C17.3441 75.8214 17.2969 75.7506 17.2734 75.6563C17.179 75.3732 17.1318 75.0429 17.061 74.7362C16.8251 73.7926 16.6836 72.9197 16.8959 72.1412C16.8959 71.8817 16.9195 71.6458 16.9195 71.3863C16.8251 71.2684 16.8487 71.1504 16.8015 71.0089C16.7308 70.6786 16.542 70.3483 16.4241 70.0888C16.3297 69.8529 16.2118 69.6406 16.1174 69.3811C16.0702 69.2632 16.023 69.1216 15.9995 69.0037C15.9995 68.9093 15.9523 68.8857 15.9995 68.8149C15.9523 68.8149 15.9287 68.8149 15.9287 68.7677C15.8343 68.3667 15.5984 68.1308 15.504 67.7298C15.4569 67.7298 15.4333 67.6118 15.3861 67.5882C15.2917 67.3523 15.1974 67.1164 15.103 66.9041C15.0086 66.6682 14.9143 66.4323 14.7963 66.1963C14.6312 66.0312 14.584 65.8425 14.4425 65.7009C14.3717 65.6066 14.2537 65.5594 14.1594 65.465C14.065 65.3707 13.9942 65.2527 13.9235 65.1819C13.8291 65.0876 13.6875 65.0404 13.6875 64.8753C13.4988 64.7337 13.3809 64.4978 13.2865 64.2383C13.2157 64.0496 13.1686 63.8609 13.0978 63.6721C13.0506 63.5778 12.9798 63.4598 12.9326 63.3654C12.8383 63.106 12.7675 62.8464 12.626 62.6341C12.5316 62.5634 12.4844 62.4454 12.4136 62.3275C12.3429 62.2331 12.2249 62.1623 12.1541 62.068C12.107 62.0208 12.0362 61.9028 11.989 61.832C11.8946 61.6669 11.8239 61.549 11.7531 61.3602C11.7295 61.2895 11.6823 61.2187 11.6587 61.1479C11.6587 61.1243 11.6587 61.0771 11.6587 61.03C11.6587 60.9828 11.6116 60.9592 11.6116 60.9356C11.5408 60.6289 11.47 60.275 11.4936 60.0627C11.4936 59.9684 11.4936 59.874 11.4936 59.8032C11.4936 59.6617 11.4464 59.5201 11.4936 59.4022C11.4228 59.2371 11.4228 59.0483 11.3756 58.836C11.3285 58.6237 11.2341 58.4114 11.2577 58.2226C11.1633 58.1755 11.1633 58.0575 11.1397 57.9867C11.1161 57.916 11.069 57.8216 11.0454 57.7508C10.8566 57.1139 10.8566 56.5241 10.8566 56.0523C10.8566 55.8872 10.8802 55.722 10.9038 55.6041C10.9038 55.5097 10.9274 55.4389 10.951 55.3682C10.951 55.2502 10.951 55.1322 10.9746 55.0379C10.9746 54.9199 11.0218 54.8256 11.0454 54.7312C11.0454 54.6133 11.0454 54.4717 11.0454 54.3773C11.0454 54.2594 11.1161 54.1178 11.1397 53.9763C11.1633 53.8112 11.1869 53.5753 11.1397 53.4337C11.069 53.1506 10.8802 53.2922 10.7387 53.3865C10.7151 53.3865 10.6679 53.4101 10.6443 53.4337C10.5736 53.4809 10.4792 53.6224 10.4084 53.6696C10.3141 53.7404 10.1961 53.7404 10.1017 53.8112C10.031 53.8583 9.98379 53.9291 9.91301 53.9999C9.84224 54.0471 9.74788 54.0942 9.67711 54.165C9.51197 54.283 9.37042 54.3773 9.20529 54.4953C9.13452 54.5425 9.06374 54.6368 8.99297 54.684C8.89861 54.7548 8.78065 54.802 8.68629 54.8727C8.54475 54.9907 8.47397 55.1322 8.28525 55.1558C8.16729 55.2738 8.02575 55.3682 7.86061 55.4389C7.71907 55.6512 7.53034 55.7928 7.3652 55.9343C6.98775 56.2646 6.65748 56.5713 6.3508 56.9016C6.16207 57.1139 5.90257 57.3026 5.78462 57.5149C5.50153 57.9631 5.17125 58.4586 5.00612 58.954C4.98253 59.0483 4.93535 59.1191 4.91176 59.1899C4.81739 59.5201 4.77021 59.8976 4.69944 60.2515C4.58148 60.7705 4.46353 61.2187 4.46353 61.7849C4.46353 61.95 4.46353 62.1151 4.46353 62.2803C4.46353 62.587 4.46353 63.0116 4.5343 63.2947C4.58148 63.4362 4.67585 63.5778 4.67585 63.7193C4.67585 63.9788 4.55789 64.2619 4.48712 64.5214C4.41635 64.7809 4.36917 65.1112 4.39276 65.4179C4.39276 65.4414 4.41635 65.4886 4.43994 65.5122C4.43994 65.5358 4.43994 65.583 4.43994 65.6302C4.43994 65.7009 4.51071 65.8189 4.5343 65.8897C4.55789 65.9604 4.58148 66.0548 4.62867 66.1256C4.67585 66.1964 4.77021 66.2435 4.7938 66.3379C4.86457 66.5502 4.74662 66.7625 4.7938 66.9513C4.7938 66.7389 4.60508 66.5974 4.58148 66.4087C4.58148 66.3143 4.58148 66.2435 4.58148 66.1492C4.58148 66.0312 4.48712 65.9133 4.46353 65.7953C4.41635 65.6774 4.39276 65.5122 4.34558 65.3943C4.2748 65.2527 4.13326 65.1348 4.0153 65.0168C3.89735 64.8989 3.73221 64.7809 3.68503 64.6394C3.63785 64.4506 3.68503 64.3799 3.68503 64.2383C3.73221 64.0496 3.7794 63.908 3.82658 63.7665C3.85017 63.6957 3.87376 63.6014 3.87376 63.507C3.89735 63.3419 3.96812 63.1531 3.99171 62.988C3.99171 62.9172 3.99171 62.8465 3.99171 62.7993C3.99171 62.7285 4.03889 62.6813 4.03889 62.6105C4.13326 62.2095 4.10967 61.7849 4.15685 61.3602C4.18044 61.0771 4.25121 60.8176 4.2748 60.5581C4.2748 60.393 4.2748 60.1335 4.2748 60.0156C4.2748 59.9684 4.2748 59.9448 4.2748 59.8976C4.25121 59.5909 4.2748 59.4258 4.32199 59.1663C4.32199 59.0011 4.36917 58.8124 4.41635 58.6709C4.46353 58.5057 4.5343 58.3878 4.58148 58.2226C4.62867 58.0575 4.60508 57.8924 4.67585 57.7272C4.60508 57.5857 4.67585 57.5385 4.60508 57.397L4.46353 57.4206ZM15.0558 48.8335C15.3389 48.975 15.5512 48.6212 15.8579 48.5504C16.0702 48.3145 16.4477 48.1965 16.542 47.8899C16.542 47.8191 16.542 47.7011 16.4713 47.6775C16.8487 47.5832 17.1318 47.3237 17.3441 47.0642C17.4385 46.9462 17.5329 46.8519 17.5093 46.6631C16.6128 46.616 16.3297 47.3473 15.8107 47.7011C15.7635 47.8191 15.6692 47.9135 15.5984 48.055C15.3625 48.1965 15.2681 48.4324 15.0794 48.5976C15.0794 48.7155 14.9615 48.7155 15.0322 48.8571L15.0558 48.8335ZM21.2602 63.4834C21.3546 63.3654 21.3546 63.2003 21.3782 63.0588C21.4253 62.8465 21.4961 62.6341 21.5433 62.3746C21.5433 62.3039 21.5905 62.2331 21.6141 62.1623C21.732 61.7141 21.8028 61.2659 21.8972 60.794C21.9207 60.6525 21.9679 60.4874 21.9915 60.3222C22.0387 60.1099 22.0387 59.9448 22.0387 59.6617C22.0387 59.3786 22.1331 59.0719 22.1095 58.7652C22.1803 58.3878 22.251 58.0339 22.369 57.7036C22.369 57.6565 22.3926 57.5857 22.4162 57.5385C22.4162 57.4913 22.4869 57.4441 22.4869 57.397C22.5105 57.3262 22.5105 57.2082 22.5341 57.1375C22.5577 57.0431 22.6049 56.9723 22.6285 56.9016C22.6285 56.8308 22.6285 56.7364 22.6521 56.6657C22.6521 56.5949 22.6992 56.5241 22.7228 56.4297C22.77 56.241 22.8172 56.0759 22.8644 55.9107C22.8644 55.84 22.8644 55.7928 22.8644 55.722C22.8644 55.6748 22.9116 55.6277 22.9352 55.5805C22.9587 55.4389 22.9352 55.2738 23.0059 55.1794C23.0059 54.9907 23.0059 54.8256 23.0295 54.6368C23.0295 54.4953 23.1239 54.3537 23.1475 54.2122C23.1475 54.1414 23.1475 54.0707 23.1475 53.9999C23.1711 53.6696 23.289 53.3629 23.3598 53.0563C23.407 52.8911 23.4542 52.7496 23.4777 52.5844C23.5013 52.4193 23.4777 52.2542 23.5721 52.1126C23.5249 51.9475 23.5721 51.8295 23.5957 51.7352C23.5721 51.4521 23.4306 51.0982 23.1003 51.2869C23.0059 51.3341 22.9823 51.4757 22.9116 51.5228C22.8172 51.57 22.7228 51.57 22.6285 51.6408C22.369 51.7823 22.1567 52.1598 21.8972 52.4193C21.7084 52.608 21.5433 52.8203 21.3546 53.0091C21.331 53.0327 21.2838 53.0798 21.2366 53.1034C21.1187 53.2214 20.9535 53.3629 20.7412 53.4809C20.5289 53.5988 20.3873 53.7404 20.175 53.8819C20.0571 53.9763 19.9391 54.0707 19.7504 54.1178C19.6088 54.2594 19.4437 54.3537 19.2786 54.4481C19.137 54.5661 19.0427 54.7076 18.8539 54.802C18.8068 54.8963 18.7596 54.9907 18.6888 55.0851C18.5944 55.203 18.4765 55.2974 18.4057 55.4389C18.3114 55.6041 18.2878 55.8636 18.2406 56.0759C18.1698 56.3826 18.1226 56.6892 18.0519 56.9723C18.1226 57.0903 18.0519 57.2318 18.099 57.3498C18.099 57.397 18.1462 57.4442 18.1698 57.4913C18.3114 57.9632 18.5001 58.4114 18.7832 58.6945C18.8304 58.9068 18.9719 59.0247 19.0899 59.1899C19.137 59.3786 19.2314 59.5201 19.3022 59.6853C19.3729 59.8504 19.4437 60.0156 19.4909 60.1807C19.6088 60.5345 19.774 60.8648 19.8683 61.2187C19.9155 61.3838 19.9155 61.5961 20.0335 61.7141C20.1514 62.2095 20.4109 62.7285 20.694 63.1059C20.7648 63.2003 20.9063 63.4362 21.0007 63.4598C21.0715 63.4598 21.1187 63.4598 21.1894 63.4598L21.2602 63.4834ZM12.9798 63.4598C12.9798 63.4598 13.0034 63.507 13.027 63.5306C13.0742 63.5306 13.027 63.4362 12.9798 63.4598Z" fill="#000100"/>
<path d="M60.8676 92.2638C60.5138 91.6976 65.4207 92.4525 65.7745 91.7683C66.4115 91.7683 66.8833 92.6648 67.2372 93.1366C67.591 93.6084 68.4875 94.9059 69.1716 94.7408C68.4639 94.5049 66.7418 92.2873 66.9305 91.4853C67.4731 92.0278 67.9921 92.9479 68.6762 93.3253C68.3459 92.9243 67.6854 92.0043 68.0864 91.5088C68.5819 91.8391 68.7942 92.4525 69.1716 92.9243C69.5963 93.4669 70.1153 93.8915 70.5871 94.3869C71.1533 94.9295 71.6958 95.4957 72.2384 96.0619C72.5923 96.4157 72.9226 97.147 73.4652 97.1706C73.3 96.628 72.5687 95.8496 73.418 95.9439C73.9842 96.0147 74.5503 96.746 74.975 97.1235C76.0837 98.0671 77.051 99.2231 78.2305 100.025C78.1125 99.6477 77.9238 99.1995 78.0418 98.822C79.1506 99.3174 80.4952 101.865 81.7691 101.606C81.2973 100.662 82.6184 101.016 82.9959 101.299C83.5384 101.676 83.9867 102.243 84.5764 102.573C85.0483 102.832 85.6616 102.856 86.1098 103.21C86.4873 103.517 86.8176 104.271 87.3366 104.201C87.5725 103.611 87.7376 103.729 88.3038 103.8C88.7992 103.87 89.3654 103.8 89.8136 104.012C90.6629 104.366 91.2998 104.979 92.0547 105.498C93.0927 106.206 93.9656 106.182 95.1687 106.654C96.2775 107.102 97.4334 107.15 98.4007 107.834C99.3679 108.541 100.264 109.863 101.585 109.674C102.199 109.579 102.482 109.414 103.142 109.532C103.732 109.65 104.275 109.839 104.841 110.004C107.082 110.712 109.441 111.396 111.682 112.104C112.697 112.434 113.758 112.764 114.796 113C116.613 113.401 117.816 113.967 119.349 115.005C119.845 115.336 120.34 115.43 120.859 115.666C121.425 115.925 121.921 116.279 122.416 116.68C122.912 117.081 123.431 117.317 123.926 117.671C124.445 118.025 125.129 118.426 125.624 118.827C126.049 119.204 126.096 119.629 126.332 120.101C126.78 120.974 127.512 121.729 127.866 122.649C128.337 123.828 127.771 124.394 127.087 125.315C126.545 126.022 126.568 126.989 126.12 127.744C125.813 128.263 125.389 128.594 125.105 129.136C124.563 130.221 124.256 131.401 123.784 132.533C123.36 133.548 122.251 134.067 121.685 135.01C121.142 135.907 121.307 136.945 120.647 137.77C120.033 138.549 119.161 139.21 118.5 139.964C117.533 141.073 116.353 142.489 115.787 143.881C115.575 144.305 115.362 144.753 115.079 145.131C114.938 145.296 114.796 145.485 114.631 145.65C114.49 145.815 114.395 146.004 114.254 146.169L113.947 146.475C113.853 146.617 113.664 146.711 113.522 146.829C113.239 147.042 112.956 147.278 112.697 147.49C112.272 147.844 111.847 148.198 111.376 148.481C111.069 148.646 110.739 148.787 110.385 148.905C109.866 149.07 109.347 149.259 108.828 149.354C108.521 149.377 108.238 149.495 107.955 149.589C107.672 149.684 107.365 149.731 107.082 149.825C106.941 149.849 106.775 149.896 106.634 149.967C106.492 150.014 106.351 150.038 106.209 150.061C105.997 150.108 105.785 150.132 105.549 150.203C105.171 150.274 104.747 150.368 104.369 150.51C104.062 150.651 103.661 150.745 103.331 150.863C103.072 150.958 102.765 151.005 102.529 151.146C102.364 151.217 102.152 151.312 101.939 151.382C101.774 151.453 101.562 151.524 101.397 151.595C101.208 151.665 101.09 151.736 100.948 151.807C100.595 151.878 100.241 151.878 99.9105 151.972C99.7453 151.996 99.533 151.996 99.3443 152.043C99.1556 152.067 98.9904 152.114 98.7781 152.114C98.4007 152.161 97.976 152.255 97.5986 152.279C97.3391 152.302 97.1032 152.35 96.8673 152.373C96.7257 152.42 96.5606 152.444 96.3719 152.468C96.1595 152.515 95.9472 152.609 95.7349 152.656C95.5226 152.727 95.3103 152.751 95.098 152.821C94.9328 152.892 94.7441 152.892 94.579 152.963C94.5082 153.01 94.4138 153.01 94.3431 153.034C94.2487 153.057 94.1307 153.128 94.0364 153.175C93.942 153.199 93.8712 153.199 93.8005 153.246L93.5881 153.34C93.5881 153.34 93.423 153.435 93.305 153.482C93.2343 153.529 93.1399 153.553 93.0691 153.576C92.7625 153.718 92.4794 153.883 92.1963 154.095C92.0311 154.237 91.8896 154.378 91.7716 154.544C91.6773 154.685 91.5357 154.779 91.4178 154.921C91.3942 154.945 91.3942 155.015 91.347 155.11C91.3234 155.11 91.2762 155.133 91.2762 155.181C91.2291 155.251 91.2291 155.322 91.2055 155.393C91.1819 155.416 91.1347 155.487 91.1347 155.534C91.1347 155.534 91.119 155.574 91.0875 155.652C91.0875 155.652 90.828 155.983 90.8044 156.572C90.8044 157.162 90.7336 157.516 90.7336 157.516C90.7808 158.389 91.2762 159.568 91.2291 159.309C91.0639 158.53 90.8752 157.422 91.4886 156.785C91.984 156.242 92.6917 156.148 93.3758 156.053C93.7769 155.983 94.0364 155.865 94.3902 155.652C94.6025 155.534 94.8856 155.346 95.1451 155.44C95.5698 155.582 95.381 156.077 95.4282 156.431C95.499 156.832 95.617 157.139 95.9708 157.398C96.2067 157.54 96.8201 157.634 96.9145 157.941C97.1268 158.601 95.9472 159.12 95.617 159.45C95.3574 159.71 95.3103 160.087 95.098 160.371C94.8385 160.748 94.5082 161.102 94.2251 161.479C93.9656 161.833 93.7297 162.116 93.5645 162.517C93.3758 162.989 93.305 163.272 92.8804 163.555C92.503 163.815 92.0783 163.956 91.7481 164.31C91.3234 164.735 91.5357 164.829 91.5593 165.301C91.6065 166.15 90.7572 167.141 90.4506 167.943C89.7664 169.807 90.4034 172.024 91.6773 173.463C92.3378 174.218 92.904 174.667 93.8948 174.95C94.4846 175.115 95.7113 175.516 96.2303 175.044C96.2303 175.044 96.3011 174.855 96.2775 174.879C95.4282 175.351 94.461 174.006 94.1779 173.416C93.824 172.661 93.5646 171.93 93.3758 171.175C93.2343 170.609 92.5737 168.674 93.7297 169.311C94.06 169.5 94.4138 169.83 94.8149 169.783C95.1451 169.736 95.8529 169.359 96.1595 169.193C96.5842 168.958 96.9852 168.769 97.1032 168.297C97.1975 167.943 97.056 167.471 97.3627 167.165C97.1975 168.085 98.6838 169.288 99.2499 169.83C100.17 170.727 101.184 170.986 102.364 170.727C101.633 170.491 100.948 169.595 100.406 169.028C99.7454 168.344 99.0848 167.283 99.5566 166.339C100.359 164.758 103.591 165.962 103.685 163.815C103.685 163.272 103.756 163.272 104.039 162.777C104.298 162.352 104.157 162.116 104.039 161.668C103.732 160.441 104.511 160.654 105.36 160.347C105.832 160.158 106.256 159.804 106.705 159.592C107.106 159.38 107.672 159.167 107.837 158.719C107.979 158.295 107.601 157.776 107.837 157.422C108.026 157.115 108.592 157.139 108.875 157.091C109.866 156.879 110.904 156.667 111.871 156.289C113.003 155.841 114.089 155.865 115.315 155.794C117.391 155.7 119.09 156.195 120.977 156.926C121.355 157.068 121.732 157.233 122.109 157.233C122.581 157.233 122.817 156.997 123.195 156.832C123.619 156.667 124.233 156.714 124.657 156.879C125.082 157.044 125.129 157.327 125.389 157.658C126.096 158.53 127.016 158.931 127.936 159.427C128.172 159.545 128.809 159.899 128.691 160.276C128.621 160.488 127.913 160.677 127.7 160.842C127.064 161.361 127.158 162.163 126.592 162.73C125.978 163.319 125.2 163.626 124.563 164.192C123.95 164.758 123.313 165.513 122.511 165.844C122.109 166.009 121.779 165.938 121.355 166.032C120.883 166.15 120.411 166.315 119.963 166.41C118.311 166.834 116.542 166.622 114.843 166.976C114.442 167.047 114.112 167.235 113.688 167.306C113.31 167.377 112.909 167.33 112.555 167.448C112.201 167.566 111.942 167.778 111.612 167.943C111.022 168.25 110.314 168.273 109.677 168.344C109.3 168.391 108.969 168.439 108.639 168.604C108.049 168.91 107.719 168.816 107.035 168.792C106.422 168.792 105.431 169.5 104.912 169.83C104.157 170.302 103.591 171.222 103.308 172.048C103.001 172.944 102.505 173.77 102.152 174.667C101.869 175.421 101.703 176.342 101.774 177.191C101.798 177.474 101.821 178.016 102.152 178.158C102.529 178.323 102.647 177.851 102.812 177.545C103.26 176.719 103.331 175.988 103.52 175.091C103.661 174.407 104.322 173.864 104.723 173.298C104.912 173.039 105.171 172.614 105.502 172.496C106.021 172.307 106.28 172.543 106.162 173.015C106.068 173.44 105.903 173.487 106.091 173.888C106.186 174.1 106.398 173.888 106.304 174.242C106.304 174.242 105.973 174.596 105.95 174.619C104.676 175.94 103.543 177.285 103.024 179.102C102.529 180.824 101.774 182.664 101.68 184.48C101.633 185.377 101.703 186.368 101.916 187.217C102.081 187.877 102.435 189.269 103.048 189.647C103.048 189.6 103.048 189.482 103.048 189.458C103.119 189.199 102.93 188.585 102.907 188.255C102.907 187.736 102.859 187.264 102.954 186.769C103.119 185.967 103.473 185.33 103.756 184.575C104.015 183.914 104.204 182.782 104.841 182.428C105.289 182.168 105.407 182.428 105.785 182.64C106.186 182.876 106.469 182.805 106.917 182.829C106.138 183.23 106.138 183.961 106.186 184.763C106.233 185.636 105.903 186.415 105.926 187.288C105.997 188.915 106.823 190.425 107.672 191.746C107.342 190.071 107.46 188.373 108.285 186.792C108.71 185.99 109.323 185.212 109.913 184.528C110.243 184.15 110.691 183.914 110.998 183.537C111.21 183.277 111.21 182.876 111.494 182.711C111.989 182.404 112.885 182.923 113.404 182.994C114.301 183.112 115.197 182.9 115.764 182.168C116.165 181.626 116.613 180.706 116.684 180.022C116.731 179.644 116.566 179.385 116.684 179.007C116.802 178.606 117.179 178.158 117.438 177.828C118.123 177.002 118.783 177.049 119.68 176.719C120.6 176.365 120.647 175.351 121.213 174.69C121.779 174.006 122.794 173.841 123.431 173.322C124.044 172.803 124.988 172.614 125.79 172.661C125.931 172.85 126.191 173.157 126.497 173.11C126.733 173.062 126.71 172.826 126.898 172.779C127.04 172.732 127.252 172.874 127.394 172.874C127.818 172.874 128.149 172.591 128.503 172.473C129.352 172.213 130.343 172.355 131.239 172.355C131.735 172.355 132.183 172.496 132.678 172.496C133.126 172.496 133.457 172.378 133.858 172.355C134.282 172.307 134.731 172.355 135.155 172.402C135.485 172.425 136.17 172.26 136.406 172.543C136.406 172.543 136.288 172.591 136.288 172.614C136.665 172.425 137.113 172.378 137.491 172.166C137.373 172.213 137.208 172.331 137.113 172.402C137.632 172.543 138.151 172.402 138.67 172.638C139.166 172.85 139.59 172.732 140.015 173.204C140.44 173.676 140.652 174.266 141.029 174.761C141.383 175.233 141.855 175.445 142.35 175.752C143.247 176.271 143.601 176.743 144.143 177.592C144.709 178.465 145.441 178.276 146.361 178.182C146.927 178.134 147.116 178.205 147.116 177.686C147.116 177.214 147.045 176.908 147.163 176.436C147.257 176.082 147.352 175.587 147.706 175.492C147.941 175.421 148.484 175.728 148.744 175.752C149.664 175.846 150.324 175.421 151.103 176.082C151.692 176.601 152.046 177.332 152.235 178.087C152.424 178.842 152.565 179.644 152.494 180.423C152.424 181.13 151.834 182.003 151.928 182.711C152.518 182.687 153.155 181.697 153.297 181.154C153.462 180.517 153.438 179.668 153.415 178.984C153.344 177.71 153.131 176.035 152.4 174.973C152.046 174.431 151.386 173.817 150.82 173.581C150.489 173.44 150.112 173.393 149.782 173.18C149.097 172.779 148.342 172.591 147.8 172.024C147.163 171.364 146.55 171.529 145.747 171.269C145.181 171.081 144.45 170.774 143.907 170.42C143.223 169.996 142.704 169.665 141.879 169.453C141.1 169.264 140.251 169.052 139.472 168.722C138.694 168.391 137.939 168.132 137.137 167.896C136.712 167.778 136.335 167.613 135.91 167.495C135.132 167.306 134.872 167.023 134.259 166.551C134.07 166.41 133.881 166.315 133.693 166.174C133.244 165.82 132.867 165.301 132.89 164.758C132.938 163.626 134.023 162.8 134.589 161.975C134.99 161.409 135.368 160.701 135.721 160.087C135.91 159.734 136.004 159.427 136.335 159.356C136.83 159.262 137.066 159.521 137.326 159.804C137.585 160.064 137.774 160.3 137.892 160.63C137.963 160.795 137.939 161.031 138.057 161.196C138.198 161.361 138.411 161.338 138.529 161.479C139.048 162.069 138.246 162.989 138.694 163.508C138.859 163.201 139.189 162.965 139.307 162.612C139.425 162.211 139.213 161.786 139.26 161.361C139.331 160.536 139.402 160.064 138.529 159.663C138.505 158.79 137.797 158.106 137.939 157.186C138.104 156.313 139.189 155.912 139.543 155.133C140.015 154.119 141.407 153.317 141.808 152.232C142.35 151.996 142.704 151.005 143.035 150.486C143.695 150.297 144.19 149.236 144.568 148.693C144.568 148.622 144.544 148.599 144.474 148.599C144.733 148.339 144.922 148.056 144.993 147.726C144.993 147.726 145.228 147.584 145.299 147.537C145.37 147.419 145.417 147.23 145.488 147.112C146.314 146.381 146.974 144.871 147.847 144.093C148.295 143.692 148.838 143.102 149.333 142.748C149.852 142.371 150.56 142.347 150.985 141.899C151.48 141.71 152.825 141.097 153.249 140.649C153.603 140.271 153.532 139.823 153.745 139.398C153.957 138.997 154.122 138.926 154.453 138.573C155.113 137.936 155.656 137.393 156.009 136.52C156.387 135.6 156.08 134.822 156.104 133.878C158.321 134.279 157.236 131.991 157.307 130.481C157.354 129.537 157.354 129.136 157.118 128.216C157 127.744 157.048 126.588 157.236 126.117C157.543 125.338 157.449 125.763 158.321 125.338C158.746 125.126 158.864 124.819 159.265 124.63C160.35 124.135 159.996 124.843 160.704 125.621C161.53 126.494 161.836 125.857 162.709 125.881C163.559 125.881 164.148 126.872 164.95 126.872C164.785 126.329 164.196 125.739 164.172 125.173C165.234 124.536 165.988 125.81 167.097 125.55C167.05 124.772 165.186 124.607 166.814 123.923C167.711 123.545 168.3 124.277 169.244 124.111C169.385 123.569 168.701 123.356 168.749 123.003C168.843 122.318 169.503 122.72 169.975 122.696C170.99 122.625 171.792 122.201 172.759 122.012C173.254 121.917 173.773 121.988 174.269 121.894C174.552 121.847 174.835 121.988 175.071 121.799C175.307 121.564 175 121.304 175.071 121.186C175.519 120.549 175.307 120.785 176.015 120.478C176.368 120.313 176.793 120.219 177.123 119.936C176.864 119.322 174.811 118.166 175.897 117.482C176.156 118.237 176.911 117.435 177.053 117.6C176.746 117.223 176.227 117.199 175.944 116.798C177.359 115.784 179.459 117.081 180.827 116.562C180.803 115.477 179.27 115.619 179.129 114.557C179.789 114.51 180.402 114.722 181.063 114.746C180.898 113.236 177.548 114.368 177.501 112.741C178.303 112.882 179.058 113.212 179.931 113.33C179.883 113.142 180.001 112.835 179.954 112.646C181.865 112.811 183.446 111.632 185.239 111.089C186.89 110.617 187.975 109.438 189.768 109.249C191.349 109.084 193.165 110.051 194.581 109.556C194.887 109.438 194.982 109.084 195.312 108.966C195.642 108.848 196.161 108.919 196.515 108.966C197.223 108.99 198.214 109.391 198.85 109.037C198.544 108.848 198.473 108.541 198.355 108.258C199.275 108.211 200.03 107.787 200.997 107.834C201.799 107.881 202.531 108.258 203.333 108.117C203.191 106.914 201.658 107.739 201.186 106.914C201.681 105.593 204.418 107.409 205.173 107.716C206.305 108.164 206.777 108.188 207.461 107.338C207.744 106.984 207.862 106.678 208.263 106.418C208.617 106.206 209.112 106.3 209.396 106.112C210.198 105.616 210.103 104.979 211.33 105.286C211.755 105.404 212.109 105.758 212.557 105.805C212.981 105.828 213.241 105.522 213.689 105.498C214.373 105.451 215.435 106.182 215.93 105.593C216.544 104.838 215.388 104.295 216.945 104.083C217.369 104.012 217.959 104.224 218.36 104.083C218.95 103.87 218.69 103.611 219.068 103.351C219.752 102.903 220.342 103.469 221.215 103.446C221.002 103.186 220.766 102.903 220.554 102.667C222.04 102.573 223.361 102.408 224.73 102.243C227.608 101.865 230.462 103.116 232.916 104.484C234.213 105.192 235.393 106.583 236.737 107.032C237.327 107.22 237.988 107.244 238.672 107.551C239.332 107.834 240.04 108.117 240.724 108.423C241.597 108.801 242.517 109.155 243.343 109.745C243.909 110.122 244.263 110.735 244.971 110.853C244.971 110.382 244.758 109.98 245.089 109.627C246.221 111.467 248.556 113.047 250.231 114.345C251.081 115.005 252.284 115.548 253.275 115.973C255.327 116.893 257.592 117.341 259.408 118.709C260.352 119.417 261.531 119.747 262.687 120.172C263.82 120.573 264.952 120.809 266.061 121.186C267.075 121.54 268.349 122.837 269.434 122.72C270.189 122.649 270.449 121.941 271.204 122.083C271.463 122.13 271.864 122.602 272.194 122.696C272.619 122.814 272.855 122.837 273.327 122.72C273.987 122.531 274.577 121.965 275.261 121.894C276.04 121.847 276.606 121.941 277.408 121.799C278.186 121.658 278.941 121.823 279.342 120.95C279.508 120.573 279.248 120.125 279.46 119.747C279.743 119.275 279.885 119.558 280.286 119.252C280.923 118.756 281.277 118.308 282.055 118.119C282.928 117.907 283.777 118.355 284.58 118.096C284.698 117.6 284.674 117.128 284.91 116.68C285.051 116.374 285.523 116.161 285.618 115.831C285.877 114.864 284.933 114.604 284.438 114.085C283.848 113.472 283.895 112.741 283.494 111.962C283.093 111.136 282.48 110.617 281.843 110.028C280.593 108.895 279.272 107.739 277.903 106.654C277.785 106.772 277.479 106.914 277.384 106.772C277.549 106.772 277.667 106.654 277.715 106.513C277.432 106.3 277.148 106.064 276.865 105.852C276.724 105.781 276.582 105.734 276.464 105.758C276.252 105.357 275.757 105.451 275.45 105.239C275.356 105.192 275.332 105.05 275.238 105.003C274.766 104.743 274.365 104.79 273.917 104.649C273.492 104.531 273.185 104.177 272.666 104.059C272.666 104.342 272.949 104.555 272.831 104.885C272.69 104.673 272.713 104.366 272.548 104.106C272.501 104.059 272.359 104.036 272.289 103.965C272.147 103.823 272.147 103.611 272.029 103.54C271.935 103.469 271.77 103.493 271.628 103.422C271.038 103.163 270.59 102.597 270.048 102.243C269.222 101.724 268.443 101.205 267.689 100.756C267.476 100.355 266.981 100.025 266.886 99.5769C266.556 99.459 266.533 99.1287 266.179 99.1287C265.73 98.3738 264.81 97.8548 263.914 97.5717C263.843 97.5245 263.961 97.4065 263.867 97.383C263.655 97.4301 263.253 97.0291 263.041 96.746C262.215 96.5573 261.531 96.227 260.776 95.8731C260.493 95.3777 259.786 95.1182 259.455 94.6228C258.465 94.3397 257.71 93.8915 256.648 93.5377C256.294 93.0423 255.492 93.1602 255.044 92.8771C254.832 92.7356 254.784 92.4997 254.619 92.3581C254.195 92.0043 253.676 91.8627 253.227 91.3437C253.039 91.2965 252.944 91.2493 252.826 91.2257C252.873 91.1314 252.944 91.1786 252.991 91.155C252.921 91.1078 252.708 91.155 252.732 91.0134C252.779 90.8483 252.685 90.636 252.496 90.4237C252.567 90.5416 252.614 90.636 252.59 90.7539C252.449 90.4237 251.718 90.3529 251.788 90.0698C252.048 90.3529 252.142 90.2349 252.425 90.4237C252.331 90.3057 252.213 90.2113 252.142 90.0934C253.133 90.8247 254.761 91.4145 255.351 92.1694C255.563 92.0514 255.893 92.3345 256.105 92.2166C256.672 92.5232 257.002 92.6648 257.332 92.9007C257.639 92.8299 257.804 93.0894 258.063 93.2074C258.842 93.5612 259.786 93.6792 260.564 94.269C260.729 94.3869 260.776 94.5756 260.894 94.67C261.885 95.6136 263.324 95.4721 264.362 96.2742C264.433 96.3686 264.527 96.4629 264.598 96.5809C265.188 96.746 265.919 97.0291 266.391 97.4773C266.934 97.7132 267.641 97.8076 268.137 98.185C268.208 98.303 268.16 98.4445 268.278 98.5389C268.396 98.4917 268.561 98.6804 268.632 98.5153C269.222 99.0579 269.953 98.9635 270.614 99.5769C270.779 99.5061 270.968 99.5533 271.156 99.6005C271.156 99.6949 271.038 99.6713 271.086 99.7184C271.888 99.8836 272.525 100.497 273.232 100.945C273.374 100.945 273.539 100.992 273.681 100.992C275.875 101.11 275.827 99.4118 274.766 97.9491C272.902 95.4013 270.354 93.7971 267.924 91.9807C266.816 91.155 265.636 90.3293 264.575 89.5272C263.301 88.5836 261.956 88.2297 260.564 87.5456C257.804 86.1773 255.563 84.4788 252.661 83.4408C251.199 82.9218 249.901 82.3084 248.486 81.6007C247.282 80.9873 246.197 80.0673 244.853 79.737C244.263 79.5955 243.673 79.6426 243.083 79.5011C242.376 79.336 241.739 78.8406 241.031 78.699C240.512 78.6047 239.899 78.3923 239.497 78.18C238.978 77.9677 238.483 77.6846 237.964 77.4723C237.563 77.26 237.044 77.0713 236.525 76.8589C235.511 76.3399 234.378 75.8445 233.364 75.1132C232.845 74.8065 232.349 74.5942 231.83 74.1932C231.429 73.8865 231.005 73.5798 230.698 73.0608C230.391 72.6598 230.085 72.1408 229.684 71.7397C229.377 71.433 228.858 71.1264 228.363 71.032C227.962 70.914 227.537 70.7253 227.23 70.4186C227.23 70.4186 227.23 70.3243 227.136 70.3243C227.136 70.2299 227.042 70.2299 226.924 70.1355C226.711 69.9232 226.617 69.7109 226.405 69.5222C226.192 69.3099 226.098 69.0032 225.791 68.8145C225.485 68.5078 225.178 68.2011 224.777 67.8944C224.258 67.4934 223.644 67.1867 223.031 66.762C222.323 66.3374 221.71 65.842 221.097 65.441C220.578 65.1343 219.964 64.8276 219.469 64.5209C218.95 64.2142 218.336 63.9076 217.841 63.5065L216.308 62.5865C215.789 62.2798 215.293 61.8787 214.869 61.4777C214.468 61.0531 214.043 60.652 213.548 60.3453C213.029 60.0387 212.533 59.732 211.92 59.4253L210.386 58.5053C209.16 57.7975 207.933 57.2785 206.706 56.7595C205.574 56.2405 204.441 55.5328 203.427 54.8251C202.908 54.5184 202.507 54.3061 201.894 53.9994C201.587 53.905 201.375 53.6927 201.068 53.5984C200.761 53.504 200.455 53.504 200.242 53.386C199.723 53.0794 199.11 52.985 198.615 52.7727C198.096 52.5604 197.6 52.1593 197.081 52.1593C196.916 52.1593 196.539 51.947 196.35 52.065C194.51 51.8526 192.835 49.7531 191.349 48.8094C189.98 47.9366 188.187 47.276 186.654 46.7334C184.885 46.0965 183.375 45.2472 181.653 44.3743C178.114 42.5343 174.552 40.529 170.777 39.3495C167.333 38.2879 163.299 37.7453 160.138 36.094C158.534 35.2683 157.118 34.7257 155.255 34.4426C153.863 34.2303 152.447 34.419 151.055 34.0887C149.428 33.6877 147.894 33.2395 146.196 32.9564C144.592 32.6969 143.223 32.1307 141.713 31.6825C140.959 31.4466 140.109 31.1399 139.284 30.9747C138.434 30.8096 137.609 31.0691 136.783 30.9747C135.132 30.8096 133.905 29.7244 132.23 29.4413C130.366 29.1347 128.55 28.9459 126.71 28.5685C125.153 28.2382 124.02 27.3418 122.487 26.8935C120.741 26.3981 119.09 27.3182 117.273 26.7992C115.48 26.3038 113.546 26.3745 111.824 25.9027C110.951 25.6668 110.078 25.2186 109.182 24.9355C108.073 24.6052 106.941 24.4637 105.808 24.2514C104.629 24.0154 101.916 23.9447 101.137 23.001C102.93 21.7035 98.2119 20.8543 97.3155 20.7835C95.4282 20.5948 92.9984 21.0666 91.2998 20.4768C89.7428 19.9342 88.2802 19.7927 86.6524 19.486C84.7888 19.1321 77.4992 16.2541 75.9186 15.1453L60.7969 92.4053L60.8676 92.2638ZM260.139 97.2414C260.139 97.2414 260.352 97.3594 260.234 97.4773C260.163 97.4066 260.045 97.3594 260.139 97.2414ZM251.576 89.9047C251.718 89.9518 251.552 89.8103 251.6 89.7395C251.765 89.7159 251.741 89.7395 251.906 89.8103C251.906 89.999 251.741 89.7631 251.718 89.8575C251.718 89.9754 251.529 90.0226 251.576 89.9047ZM251.128 89.6923C251.128 89.6923 251.529 89.6923 251.529 89.7631C251.387 89.7631 251.269 89.7395 251.128 89.6923ZM250.326 89.4093C250.514 89.5272 250.797 89.5272 250.774 89.7159C250.656 89.7159 250.278 89.5036 250.326 89.4093ZM195.807 52.065L196.397 51.9706C196.397 51.9706 196.35 52.0178 196.326 52.065H195.807ZM128.243 132.911C128.455 132.58 128.668 132.227 128.833 131.778C128.951 131.519 129.14 131.236 129.305 130.929C129.517 130.552 129.635 130.127 129.894 129.797C130.154 129.466 130.437 129.207 130.814 129.113C131.074 128.995 131.357 129.113 131.617 129.113C131.876 129.113 132.159 129.065 132.419 128.995C132.584 128.9 132.796 128.83 132.843 128.617C132.843 128.452 132.89 128.358 132.89 128.24C132.985 127.98 132.938 127.65 133.056 127.391C133.221 127.06 133.598 126.966 133.858 126.966C134.188 126.966 134.4 126.848 134.613 126.636C134.778 126.47 134.778 126.376 134.778 126.164C134.778 125.999 134.825 125.834 134.825 125.621C134.825 125.291 134.943 125.079 135.037 124.772C135.155 124.512 135.462 124.135 135.792 124.017C135.887 123.97 136.004 123.97 136.17 123.97C136.264 123.97 136.429 123.923 136.547 123.852C136.641 123.852 136.759 123.852 136.877 123.805C136.925 123.805 136.995 123.758 137.042 123.687C137.16 123.64 137.255 123.64 137.373 123.569H137.75C137.963 123.569 138.08 123.687 138.175 123.781C138.434 124.041 138.647 124.3 138.93 124.583C139.095 124.748 139.26 124.913 139.425 125.008C139.59 125.055 139.685 125.126 139.85 125.173C140.015 125.22 140.109 125.267 140.274 125.267C140.44 125.315 140.605 125.48 140.699 125.598C140.864 125.692 141.029 125.857 141.171 125.975C141.265 126.093 141.43 126.14 141.548 126.305C141.713 126.47 141.879 126.683 142.067 126.848C142.232 126.966 142.398 127.107 142.563 127.273C142.822 127.485 143.035 127.744 143.2 128.075C143.506 128.617 143.742 129.254 143.955 129.844C144.073 130.221 144.214 130.599 144.379 131.023C144.426 131.236 144.474 131.495 144.474 131.708C144.521 131.92 144.592 132.085 144.592 132.297V133.618C144.592 133.878 144.474 134.208 144.474 134.515C144.474 134.633 144.426 134.727 144.426 134.892V135.435C144.426 135.694 144.426 135.907 144.379 136.237C144.332 136.449 144.379 136.709 144.332 136.992C144.214 137.629 144.167 138.219 144.025 138.808C143.907 139.139 143.766 139.445 143.648 139.729C143.483 140.106 143.436 140.413 143.27 140.743C143.011 141.451 142.516 142.017 142.138 142.654C142.02 142.819 141.926 143.031 141.831 143.244C141.784 143.362 141.713 143.456 141.619 143.621C141.525 143.928 141.407 144.211 141.242 144.517C140.817 145.202 140.322 145.839 139.85 146.546C139.637 146.877 139.425 147.23 139.142 147.561C138.977 147.867 138.765 148.15 138.599 148.457C138.34 149.047 137.915 149.472 137.491 149.943C137.326 150.108 137.231 150.203 137.066 150.321C136.901 150.439 136.807 150.58 136.641 150.745C136.429 150.958 136.17 151.123 135.957 151.335C135.533 151.807 135.155 152.232 134.636 152.609C134.377 152.774 134.164 152.987 133.952 153.199C133.858 153.317 133.74 153.411 133.74 153.576C133.74 153.694 133.693 153.836 133.74 153.907C133.622 153.859 133.527 153.812 133.409 153.741C133.409 153.741 133.37 153.726 133.292 153.694C133.292 153.694 133.079 153.741 133.032 153.741C132.867 153.741 132.773 153.694 132.607 153.694C132.348 153.647 132.065 153.529 131.805 153.529C131.546 153.529 131.216 153.435 130.909 153.435C130.531 153.388 130.225 153.27 129.847 153.27H129.305C129.14 153.222 128.998 153.152 128.833 153.105C128.715 153.057 128.621 153.057 128.455 153.057C128.29 153.01 128.125 152.939 127.984 152.845C127.606 152.727 127.229 152.633 126.922 152.515C126.71 152.397 126.497 152.302 126.285 152.255C126.12 152.208 125.955 152.208 125.813 152.161C125.436 152.114 125.129 151.996 124.799 151.901C124.469 151.854 124.162 151.736 123.879 151.689C123.289 151.477 122.699 151.359 122.109 151.146C121.779 151.029 121.473 150.816 121.095 150.675C120.765 150.557 120.458 150.344 120.128 150.203C119.868 150.085 119.656 150.085 119.491 149.873C119.444 149.825 119.373 149.66 119.326 149.542C119.279 149.448 119.161 149.33 119.113 149.212L118.571 148.74H118.524C118.689 148.41 118.689 148.056 118.783 147.726C118.901 147.254 119.043 146.759 119.161 146.287C119.255 146.074 119.373 145.862 119.491 145.697C119.656 145.437 119.75 145.225 119.916 145.013C120.222 144.588 120.505 144.116 120.812 143.739C121.071 143.479 121.237 143.149 121.449 142.819C121.543 142.725 121.661 142.607 121.708 142.441C121.826 142.347 121.921 142.229 122.039 142.135C122.416 141.545 122.888 140.955 123.265 140.318C123.643 139.776 123.997 139.21 124.374 138.667C124.634 138.289 124.846 137.983 125.058 137.605C125.271 137.299 125.483 136.921 125.695 136.591C125.908 136.331 126.073 136.048 126.285 135.742C126.45 135.529 126.592 135.27 126.757 135.058C127.016 134.633 127.394 134.255 127.677 133.831C127.795 133.666 127.889 133.571 127.984 133.406C128.102 133.241 128.196 133.099 128.314 132.934L128.243 132.911Z" fill="black"/>
<path d="M219.111 192.431L236.474 167.708L200.568 168.156L219.111 192.431Z" stroke="#221E1F" stroke-width="1.5334" stroke-linecap="round" stroke-linejoin="round"/>
<path d="M236.474 167.708L229.915 159.474L208.141 160.324L200.568 168.156L236.474 167.708Z" stroke="#221E1F" stroke-width="1.5334" stroke-linecap="round" stroke-linejoin="round"/>
<path d="M221.662 188.821L225.578 167.849" stroke="#221E1F" stroke-width="1.5334" stroke-linecap="round" stroke-linejoin="round"/>
<path d="M212.879 167.99L218.659 191.888" stroke="#221E1F" stroke-width="1.5334" stroke-linecap="round" stroke-linejoin="round"/>
<path d="M209.461 160.276L212.882 167.99L216.633 159.993L225.573 167.849L228.121 159.545" stroke="#221E1F" stroke-width="1.5334" stroke-linecap="round" stroke-linejoin="round"/>
<g style="mix-blend-mode:multiply">
<path d="M249.075 94.5753C254.406 97.7836 259.714 101.016 265.046 104.224C267.688 105.828 271.651 104.908 273.114 102.101C274.576 99.2934 273.821 95.7312 270.99 94.0327L255.019 84.384C252.377 82.7799 248.414 83.6999 246.951 86.5072C245.489 89.3145 246.244 92.8767 249.075 94.5753Z" fill="#FEFE1E"/>
</g>
<g style="mix-blend-mode:multiply">
<path d="M228.01 161.337C227.278 159.403 226.429 157.468 225.344 155.675C224.259 153.883 223.008 152.231 221.64 150.674C221.097 150.108 220.484 149.683 219.753 149.447C219.045 149.07 218.29 148.905 217.488 148.928C216.686 148.905 215.908 149.07 215.223 149.447C214.492 149.683 213.855 150.084 213.336 150.674C212.298 151.807 211.543 153.269 211.614 154.85L211.826 156.407C212.109 157.398 212.605 158.27 213.336 159.002C213.714 159.426 214.044 159.851 214.398 160.299L213.478 159.096C214.87 160.913 216.002 162.871 216.898 164.97L216.309 163.555C216.427 163.861 216.544 164.145 216.662 164.451C216.851 165.23 217.205 165.89 217.724 166.456C218.149 167.093 218.691 167.612 219.375 167.966C220.059 168.391 220.791 168.627 221.569 168.674C222.348 168.839 223.126 168.816 223.928 168.58C225.344 168.108 226.736 167.235 227.443 165.867C228.151 164.498 228.599 162.776 228.033 161.314L228.01 161.337Z" fill="#FEFE1E"/>
</g>
<g style="mix-blend-mode:multiply">
<path d="M236.168 185.376C235.248 178.323 233.903 171.363 232.464 164.38L221.683 168.934C223.594 171.646 225.528 174.383 227.439 177.096C228.335 178.37 229.397 179.384 230.954 179.809C232.369 180.186 234.257 180.021 235.507 179.219C238.008 177.615 239.517 173.84 237.63 171.151C235.743 168.462 233.785 165.702 231.874 162.989C230.175 160.559 227.368 159.379 224.514 160.582C221.659 161.785 220.503 164.616 221.093 167.542C222.367 173.746 223.641 179.95 224.49 186.226L224.278 184.669C224.301 184.928 224.349 185.164 224.372 185.424C224.584 187.051 224.891 188.396 226.094 189.599C227.109 190.614 228.807 191.392 230.27 191.321C231.732 191.25 233.384 190.755 234.445 189.599C235.413 188.538 236.38 186.933 236.168 185.424V185.376Z" fill="#FEFE1E"/>
</g>
<g style="mix-blend-mode:multiply">
<path d="M212.463 169.665C215.436 172.684 218.432 175.68 221.404 178.7L229.755 170.349C226.854 168.06 223.881 166.032 220.555 164.451C218.243 163.342 215.27 163.342 213.407 165.371C211.543 167.4 211.402 169.995 212.487 172.519C215.2 178.841 220.342 183.748 225.32 188.349C227.585 190.448 231.454 190.755 233.671 188.349C235.889 185.942 235.818 182.522 233.671 179.997C228.387 173.793 222.253 168.414 215.554 163.814C213.501 162.399 210.08 162.918 208.405 164.734C206.66 166.645 206.07 169.594 207.485 171.882C209.396 174.996 211.637 177.898 214.138 180.54C216.261 182.781 220.366 182.852 222.489 180.54C224.848 177.969 224.542 174.784 222.489 172.189L217.724 166.197C216.167 164.262 212.581 163.979 210.576 165.277C208.571 166.574 206.966 169.429 207.863 171.929C210.883 180.233 215.648 187.782 222.088 193.845C224.235 195.874 227.467 196.134 229.826 194.317C232.185 192.501 232.869 189.245 231.336 186.697C229.472 183.607 226.382 182.097 223.15 180.823C221.994 180.375 220.814 179.974 219.635 179.549C219.375 179.455 219.139 179.36 218.88 179.266C217.771 178.865 220.177 179.879 219.163 179.384C218.667 179.148 218.196 178.912 217.724 178.606C215.624 177.237 212.274 177.686 210.576 179.526C208.689 181.578 208.476 184.22 209.656 186.674C209.703 186.744 210.198 187.995 209.892 187.122C209.585 186.249 209.986 187.358 210.057 187.547C210.458 188.49 210.835 189.457 211.284 190.401C212.015 191.911 213.076 193.35 214.28 194.506C218.054 198.092 224.141 195.449 224.353 190.33C224.424 188.679 223.74 194.199 222.89 193.987C222.914 193.987 223.173 193.704 223.221 193.657C223.48 193.444 223.763 193.232 223.999 192.996C223.999 192.996 222.702 193.963 223.433 193.444C223.574 193.35 223.716 193.232 223.857 193.114C224.542 192.595 225.226 192.1 225.886 191.557C228.481 189.481 229.944 185.966 228.104 182.852C225.981 179.266 222.513 176.695 219.352 174.1C217.936 172.944 216.521 171.764 215.294 170.396C215.129 170.231 214.987 170.019 214.822 169.853C214.327 169.358 215.601 170.962 215.223 170.396C214.987 170.066 214.751 169.735 214.563 169.382C214.468 169.24 214.398 169.075 214.327 168.933C213.996 168.414 214.704 168.65 214.61 169.641C214.61 169.429 214.398 168.627 214.28 168.438C215.011 169.735 214.35 169.806 214.421 169.264C214.421 169.122 214.421 168.91 214.421 168.768C214.374 167.777 214.114 170.113 214.327 169.429C214.374 169.264 214.421 169.075 214.468 168.886C214.846 167.541 215.223 166.173 215.2 164.758C215.2 161.667 213.666 158.813 210.765 157.586C208.689 156.713 206.4 156.784 204.277 157.515C203.333 157.846 202.437 158.247 201.541 158.648C201.352 158.719 201.163 158.813 200.998 158.907C200.597 159.096 202.814 158.317 202.012 158.459C200.101 158.813 198.332 160.724 197.884 162.587C197.341 164.876 197.766 167.188 198.568 169.358C199.016 170.561 199.535 171.741 200.054 172.92C200.219 173.298 200.385 173.651 200.55 174.029C200.621 174.194 200.691 174.359 200.762 174.524C201.139 175.35 200.267 173.227 200.455 173.817C202.225 178.771 206.212 181.554 209.845 185.069C211.661 186.815 214.775 187.429 216.993 185.99C219.21 184.55 220.319 181.979 219.705 179.337C218.856 175.586 216.969 172.283 214.445 169.405C212.392 167.07 208.17 167.164 206.094 169.405C203.805 171.882 203.923 175.256 206.094 177.756C206.164 177.827 206.683 178.346 206.66 178.417C206.66 178.346 206.023 177.473 206.518 178.275C206.872 178.841 207.226 179.384 207.509 179.974C207.58 180.115 207.957 181.012 207.674 180.257C207.391 179.502 207.721 180.422 207.769 180.564C207.981 181.177 208.146 181.814 208.311 182.451L218.172 176.718C216.851 175.444 215.412 174.288 214.044 173.038C213.36 172.401 212.723 171.741 212.109 171.033C211.708 170.538 211.779 170.632 212.322 171.316C212.18 171.104 212.038 170.891 211.897 170.679C211.779 170.467 211.637 170.254 211.543 170.019C211.85 170.773 211.944 170.986 211.803 170.655C211.449 169.735 211.048 168.815 210.623 167.919C210.481 167.589 210.34 167.258 210.198 166.952C210.104 166.763 210.033 166.551 209.939 166.362C210.293 167.211 210.387 167.424 210.198 166.999C209.939 166.291 209.632 165.583 209.42 164.852C209.326 164.545 209.278 164.192 209.184 163.885C209.302 165.041 209.349 165.324 209.326 164.734C209.349 164.121 209.326 164.451 209.184 165.725L205.056 169.853C205.693 169.735 206.329 169.334 206.919 169.075C207.698 168.721 208.429 168.556 206.707 169.146C207.132 169.004 207.556 168.815 207.981 168.721C208.288 168.65 209.231 168.509 207.934 168.674C206.778 168.839 207.273 168.745 207.533 168.745C208.382 168.745 206.4 168.556 206.471 168.579C206.565 168.579 206.636 168.627 206.731 168.65C205.905 168.367 205.221 168.013 204.584 167.4C204.961 167.754 204.584 167.801 203.923 166.527C203.97 166.621 203.333 164.852 203.499 165.56C203.522 165.678 203.31 163.72 203.357 164.569C203.357 164.663 203.31 164.97 203.357 165.041C203.31 164.97 203.687 163.413 203.451 164.286C203.381 164.545 203.333 164.829 203.263 165.112C202.602 167.471 202.366 169.712 202.98 172.094C204.867 179.62 213.029 183.229 217.795 188.655C218.337 189.269 216.851 187.547 217.747 188.632L217.865 183.277L218.62 182.309C218.62 182.309 218.243 182.687 218.243 182.71C218.054 182.899 217.016 183.701 217.936 182.993C218.856 182.286 217.7 183.159 217.488 183.324C215.011 185.211 212.723 186.957 212.581 190.401L222.654 186.225C222.654 186.225 222.112 185.612 222.065 185.636C222.513 186.249 222.607 186.391 222.371 186.037C222.3 185.942 222.23 185.824 222.159 185.706C221.852 185.211 221.593 184.692 221.357 184.149C221.027 183.442 221.404 184.149 221.498 184.456C221.428 184.197 221.286 183.961 221.192 183.701C220.791 182.71 220.366 181.72 219.918 180.752L211.85 188.82C213.949 190.189 216.474 190.896 218.833 191.746C219.375 191.934 219.894 192.147 220.413 192.335C221.074 192.571 219.045 191.675 220.059 192.194C220.295 192.312 220.531 192.43 220.767 192.548C221.074 192.713 222.395 193.586 221.522 192.949C220.649 192.312 221.333 192.854 221.522 193.02C222.23 193.657 220.696 191.793 221.215 192.642L230.486 185.494C229.118 184.22 227.821 182.852 226.618 181.436C226.335 181.106 226.075 180.776 225.792 180.446C225.037 179.526 226.429 181.319 225.532 180.092C224.966 179.337 224.447 178.582 223.928 177.78C222.89 176.223 221.947 174.595 221.121 172.92C220.72 172.142 220.366 171.363 220.012 170.585C219.47 169.382 220.366 171.552 219.941 170.396C219.729 169.853 219.517 169.311 219.328 168.768L209.467 174.501C211.048 176.506 212.652 178.488 214.232 180.493L222.584 172.142C222.088 171.623 221.616 171.104 221.145 170.585C220.885 170.278 220.626 169.995 220.39 169.688C220.295 169.57 219.493 168.532 219.965 169.169C220.413 169.759 219.8 168.933 219.729 168.815C219.493 168.509 219.281 168.178 219.045 167.848C218.597 167.188 218.172 166.527 217.771 165.867L209.703 173.935C210.458 174.454 211.213 174.973 211.944 175.515C212.322 175.775 212.675 176.058 213.053 176.341C214.138 177.143 212.345 175.751 213.312 176.53C214.799 177.733 216.261 178.936 217.677 180.233C220.437 182.734 223.032 185.447 225.462 188.278L233.813 179.927C231.524 177.827 229.236 175.704 227.184 173.345C226.712 172.802 226.264 172.236 225.792 171.693C225.32 171.151 226.429 172.59 225.792 171.693C225.556 171.34 225.297 170.986 225.061 170.632C224.188 169.311 223.456 167.943 222.819 166.48L214.751 174.548C216.096 175.185 217.417 175.893 218.691 176.695C219.304 177.072 219.894 177.45 220.484 177.851C220.743 178.039 221.003 178.205 221.262 178.393C221.404 178.511 222.678 179.478 221.569 178.606C222.843 179.62 224.046 180.328 225.745 180.328C227.184 180.328 228.93 179.691 229.92 178.606C232.091 176.246 232.232 172.613 229.92 170.254C226.948 167.235 223.952 164.239 220.979 161.219C218.809 159.025 214.775 158.884 212.628 161.219C210.481 163.555 210.316 167.211 212.628 169.57L212.463 169.665Z" fill="#FEFE1E"/>
</g>
<g style="mix-blend-mode:multiply">
<path d="M221.147 169.548C223.435 173.959 226.785 177.734 230.041 181.461C231.008 182.546 232.801 183.183 234.216 183.183C235.632 183.183 237.401 182.546 238.392 181.461C239.383 180.376 240.185 178.866 240.114 177.286C240.043 175.705 239.453 174.337 238.392 173.11C236.882 171.388 235.348 169.642 233.957 167.826L234.877 169.029C233.556 167.307 232.352 165.514 231.338 163.603C230.678 162.329 229.168 161.268 227.823 160.89C226.478 160.513 224.52 160.678 223.27 161.48C222.02 162.282 220.911 163.509 220.557 164.995C220.203 166.575 220.392 168.085 221.147 169.548Z" fill="#FEFE1E"/>
</g>
</g>
<defs>
<clipPath id="clip0_1616_359">
<rect width="285.756" height="196.205" fill="white"/>
</clipPath>
</defs>
</svg>
