<svg width="21" height="20" viewBox="0 0 21 20" fill="none" xmlns="http://www.w3.org/2000/svg">
<path fill-rule="evenodd" clip-rule="evenodd" d="M10.4111 0C13.2379 1.11486e-06 13.593 0.0115152 14.7031 0.0595703C16.3948 0.13333 17.8813 0.529471 19.0742 1.66895C20.2671 2.80853 20.6816 4.22858 20.7588 5.84473C20.8091 6.90549 20.8213 7.24451 20.8213 9.94531C20.8213 12.646 20.8091 12.9854 20.7588 14.0459C20.6816 15.662 20.2671 17.0821 19.0742 18.2217C17.8813 19.3613 16.3949 19.7573 14.7031 19.8311C13.5929 19.8791 13.2379 19.8906 10.4111 19.8906C7.58386 19.8906 7.22852 19.8791 6.11816 19.8311C4.4264 19.7573 2.93998 19.3613 1.74707 18.2217C0.554244 17.0821 0.139711 15.662 0.0625 14.0459C0.0121985 12.9854 0 12.646 0 9.94531C5.3749e-07 7.24452 0.0121854 6.90549 0.0625 5.84473C0.139714 4.22858 0.554161 2.80853 1.74707 1.66895C2.93997 0.529409 4.42643 0.133331 6.11816 0.0595703C7.22851 0.0115071 7.58387 0 10.4111 0ZM10.4102 1.79199C7.63064 1.79199 7.30043 1.80155 6.20312 1.84961C5.01802 1.90099 3.91815 2.12845 3.07227 2.93652C2.22659 3.74455 1.98934 4.79476 1.93555 5.92676C1.88523 6.97514 1.875 7.29017 1.875 9.94531C1.875 12.6008 1.88523 12.9164 1.93555 13.9648C1.98937 15.0968 2.22654 16.1471 3.07227 16.9551C3.91815 17.7631 5.01802 17.9896 6.20312 18.041C7.30045 18.0891 7.63062 18.0996 10.4102 18.0996C13.1892 18.0996 13.5191 18.0891 14.6162 18.041C15.8013 17.9896 16.9012 17.7631 17.7471 16.9551C18.5928 16.1471 18.83 15.0968 18.8838 13.9648C18.9341 12.9164 18.9453 12.6008 18.9453 9.94531C18.9453 7.29017 18.9341 6.97514 18.8838 5.92676C18.83 4.79472 18.5928 3.74456 17.7471 2.93652C16.9012 2.12845 15.8013 1.90099 14.6162 1.84961C13.5191 1.80156 13.1891 1.79199 10.4102 1.79199ZM10.4092 4.83789C13.3615 4.83789 15.7549 7.12494 15.7549 9.94531C15.7547 12.7655 13.3614 15.0518 10.4092 15.0518C7.45701 15.0517 5.06371 12.7655 5.06348 9.94531C5.06348 7.12496 7.45687 4.83793 10.4092 4.83789ZM10.4082 6.62988C8.49179 6.62993 6.93848 8.11455 6.93848 9.94531C6.93863 11.776 8.49188 13.2597 10.4082 13.2598C12.3246 13.2598 13.8788 11.776 13.8789 9.94531C13.8789 8.11452 12.3247 6.62988 10.4082 6.62988ZM15.9658 3.44336C16.6558 3.44336 17.2148 3.97764 17.2148 4.63672C17.2148 5.29585 16.6558 5.83008 15.9658 5.83008C15.2759 5.83007 14.7168 5.29585 14.7168 4.63672C14.7169 3.97764 15.2759 3.44336 15.9658 3.44336Z" fill="white"/>
</svg>
