<svg width="146" height="39" viewBox="0 0 146 39" fill="none" xmlns="http://www.w3.org/2000/svg">
<rect opacity="0.25" x="107.193" y="0.75" width="37.6632" height="37.5" rx="18.75" stroke="white" stroke-width="1.5"/>
<path fill-rule="evenodd" clip-rule="evenodd" d="M125.837 16.9262L125.865 17.402L125.393 17.3437C123.677 17.1204 122.177 16.363 120.903 15.091L120.281 14.4599L120.121 14.926C119.781 15.9649 119.998 17.0621 120.705 17.8001C121.083 18.2079 120.998 18.2661 120.347 18.0234C120.121 17.9457 119.923 17.8874 119.904 17.9166C119.838 17.9845 120.064 18.8681 120.243 19.2177C120.488 19.7032 120.988 20.179 121.535 20.4605L121.998 20.6839L121.451 20.6936C120.922 20.6936 120.903 20.7033 120.96 20.9072C121.149 21.5383 121.894 22.2083 122.724 22.4996L123.309 22.7035L122.799 23.0142C122.045 23.4609 121.158 23.7133 120.272 23.7328C119.847 23.7425 119.498 23.7813 119.498 23.8104C119.498 23.9075 120.649 24.4513 121.319 24.6649C123.328 25.296 125.714 25.0242 127.506 23.9464C128.78 23.1793 130.053 21.6549 130.647 20.179C130.968 19.3925 131.289 17.9554 131.289 17.266C131.289 16.8194 131.317 16.7611 131.845 16.2271C132.156 15.9164 132.449 15.5765 132.505 15.4794C132.6 15.2949 132.59 15.2949 132.109 15.46C131.308 15.7513 131.194 15.7124 131.591 15.2755C131.883 14.9648 132.232 14.4016 132.232 14.2366C132.232 14.2074 132.09 14.256 131.93 14.3434C131.76 14.4405 131.383 14.5861 131.1 14.6735L130.591 14.8386L130.128 14.5181C129.874 14.3434 129.515 14.1492 129.327 14.0909C128.846 13.955 128.11 13.9744 127.676 14.1297C126.497 14.5667 125.752 15.693 125.837 16.9262Z" fill="white"/>
<rect opacity="0.25" x="53.9707" y="0.75" width="37.6632" height="37.5" rx="18.75" stroke="white" stroke-width="1.5"/>
<path fill-rule="evenodd" clip-rule="evenodd" d="M69.2879 26H66.2754V17H69.2879V26Z" fill="white"/>
<path fill-rule="evenodd" clip-rule="evenodd" d="M67.7727 15H67.7556C66.8566 15 66.2754 14.333 66.2754 13.4995C66.2754 12.6483 66.8743 12 67.7904 12C68.7064 12 69.2706 12.6483 69.2879 13.4995C69.2879 14.333 68.7064 15 67.7727 15Z" fill="white"/>
<path fill-rule="evenodd" clip-rule="evenodd" d="M80.3344 25.9998H77.3741V21.2954C77.3741 20.1137 76.9458 19.3074 75.8741 19.3074C75.0562 19.3074 74.5691 19.851 74.3551 20.376C74.2768 20.5641 74.2576 20.8263 74.2576 21.0891V26H71.2969C71.2969 26 71.3359 18.0318 71.2969 17.2067H74.2576V18.4522C74.6505 17.8535 75.3542 17 76.926 17C78.8741 17 80.3345 18.2571 80.3345 20.958L80.3344 25.9998Z" fill="white"/>
<rect opacity="0.25" x="0.75" y="0.75" width="37.6632" height="37.5" rx="18.75" stroke="white" stroke-width="1.5"/>
<path fill-rule="evenodd" clip-rule="evenodd" d="M17.6236 27V19.4994H16.0664V16.9146H17.6236V15.3626C17.6236 13.2539 18.5029 12 21.0011 12H23.081V14.5851H21.7809C20.8084 14.5851 20.7441 14.9464 20.7441 15.6205L20.7406 16.9143H23.0957L22.8201 19.4991H20.7406V27H17.6236Z" fill="white"/>
</svg>
